v -0.997564 0.0697565 1
v -0.997398 0.0705205 1
l 1 2
v -0.997398 0.0705205 -1
v -0.997564 0.0697565 -1
l 3 4
v -0.997398 0.0705205 1
v -0.997228 0.0712358 1
l 5 6
v -0.997228 0.0712358 -1
v -0.997398 0.0705205 -1
l 7 8
v -0.997228 0.0712358 1
v -0.997055 0.0719051 1
l 9 10
v -0.997055 0.0719051 -1
v -0.997228 0.0712358 -1
l 11 12
v -0.997055 0.0719051 1
v -0.99688 0.0725311 1
l 13 14
v -0.99688 0.0725311 -1
v -0.997055 0.0719051 -1
l 15 16
v -0.99688 0.0725311 1
v -0.996702 0.0731164 1
l 17 18
v -0.996702 0.0731164 -1
v -0.99688 0.0725311 -1
l 19 20
v -0.996702 0.0731164 1
v -0.996522 0.0736637 1
l 21 22
v -0.996522 0.0736637 -1
v -0.996702 0.0731164 -1
l 23 24
v -0.996522 0.0736637 1
v -0.99634 0.0741758 1
l 25 26
v -0.99634 0.0741758 -1
v -0.996522 0.0736637 -1
l 27 28
v -0.99634 0.0741758 1
v -0.996155 0.0746551 1
l 29 30
v -0.996155 0.0746551 -1
v -0.99634 0.0741758 -1
l 31 32
v -0.996155 0.0746551 1
v -0.99578 0.0755267 1
l 33 34
v -0.99578 0.0755267 -1
v -0.996155 0.0746551 -1
l 35 36
v -0.99578 0.0755267 1
v -0.9954 0.0762998 1
l 37 38
v -0.9954 0.0762998 -1
v -0.99578 0.0755267 -1
l 39 40
v -0.9954 0.0762998 1
v -0.995014 0.0769958 1
l 41 42
v -0.995014 0.0769958 -1
v -0.9954 0.0762998 -1
l 43 44
v -0.995014 0.0769958 1
v -0.994625 0.0776361 1
l 45 46
v -0.994625 0.0776361 -1
v -0.995014 0.0769958 -1
l 47 48
v -0.994625 0.0776361 1
v -0.994233 0.0782392 1
l 49 50
v -0.994233 0.0782392 -1
v -0.994625 0.0776361 -1
l 51 52
v -0.994233 0.0782392 1
v -0.993838 0.078812 1
l 53 54
v -0.993838 0.078812 -1
v -0.994233 0.0782392 -1
l 55 56
v -0.993838 0.078812 1
v -0.993436 0.0793582 1
l 57 58
v -0.993436 0.0793582 -1
v -0.993838 0.078812 -1
l 59 60
v -0.993436 0.0793582 1
v -0.993026 0.079882 1
l 61 62
v -0.993026 0.079882 -1
v -0.993436 0.0793582 -1
l 63 64
v -0.993026 0.079882 1
v -0.992606 0.0803872 1
l 65 66
v -0.992606 0.0803872 -1
v -0.993026 0.079882 -1
l 67 68
v -0.992606 0.0803872 1
v -0.992175 0.0808778 1
l 69 70
v -0.992175 0.0808778 -1
v -0.992606 0.0803872 -1
l 71 72
v -0.992175 0.0808778 1
v -0.991729 0.0813576 1
l 73 74
v -0.991729 0.0813576 -1
v -0.992175 0.0808778 -1
l 75 76
v -0.991729 0.0813576 1
v -0.991267 0.0818306 1
l 77 78
v -0.991267 0.0818306 -1
v -0.991729 0.0813576 -1
l 79 80
v -0.991267 0.0818306 1
v -0.990788 0.0823001 1
l 81 82
v -0.990788 0.0823001 -1
v -0.991267 0.0818306 -1
l 83 84
v -0.990788 0.0823001 1
v -0.990291 0.0827668 1
l 85 86
v -0.990291 0.0827668 -1
v -0.990788 0.0823001 -1
l 87 88
v -0.990291 0.0827668 1
v -0.989776 0.0832305 1
l 89 90
v -0.989776 0.0832305 -1
v -0.990291 0.0827668 -1
l 91 92
v -0.989776 0.0832305 1
v -0.989243 0.0836914 1
l 93 94
v -0.989243 0.0836914 -1
v -0.989776 0.0832305 -1
l 95 96
v -0.989243 0.0836914 1
v -0.988692 0.0841493 1
l 97 98
v -0.988692 0.0841493 -1
v -0.989243 0.0836914 -1
l 99 100
v -0.988692 0.0841493 1
v -0.988124 0.0846043 1
l 101 102
v -0.988124 0.0846043 -1
v -0.988692 0.0841493 -1
l 103 104
v -0.988124 0.0846043 1
v -0.987538 0.0850564 1
l 105 106
v -0.987538 0.0850564 -1
v -0.988124 0.0846043 -1
l 107 108
v -0.987538 0.0850564 1
v -0.986934 0.0855055 1
l 109 110
v -0.986934 0.0855055 -1
v -0.987538 0.0850564 -1
l 111 112
v -0.986934 0.0855055 1
v -0.986312 0.0859517 1
l 113 114
v -0.986312 0.0859517 -1
v -0.986934 0.0855055 -1
l 115 116
v -0.986312 0.0859517 1
v -0.985672 0.0863949 1
l 117 118
v -0.985672 0.0863949 -1
v -0.986312 0.0859517 -1
l 119 120
v -0.985672 0.0863949 1
v -0.985015 0.0868351 1
l 121 122
v -0.985015 0.0868351 -1
v -0.985672 0.0863949 -1
l 123 124
v -0.985015 0.0868351 1
v -0.98434 0.0872722 1
l 125 126
v -0.98434 0.0872722 -1
v -0.985015 0.0868351 -1
l 127 128
v -0.98434 0.0872722 1
v -0.983648 0.0877064 1
l 129 130
v -0.983648 0.0877064 -1
v -0.98434 0.0872722 -1
l 131 132
v -0.983648 0.0877064 1
v -0.982938 0.0881375 1
l 133 134
v -0.982938 0.0881375 -1
v -0.983648 0.0877064 -1
l 135 136
v -0.982938 0.0881375 1
v -0.98221 0.0885655 1
l 137 138
v -0.98221 0.0885655 -1
v -0.982938 0.0881375 -1
l 139 140
v -0.98221 0.0885655 1
v -0.981465 0.0889905 1
l 141 142
v -0.981465 0.0889905 -1
v -0.98221 0.0885655 -1
l 143 144
v -0.981465 0.0889905 1
v -0.980702 0.0894124 1
l 145 146
v -0.980702 0.0894124 -1
v -0.981465 0.0889905 -1
l 147 148
v -0.980702 0.0894124 1
v -0.979922 0.0898312 1
l 149 150
v -0.979922 0.0898312 -1
v -0.980702 0.0894124 -1
l 151 152
v -0.979922 0.0898312 1
v -0.979124 0.0902468 1
l 153 154
v -0.979124 0.0902468 -1
v -0.979922 0.0898312 -1
l 155 156
v -0.979124 0.0902468 1
v -0.978309 0.0906594 1
l 157 158
v -0.978309 0.0906594 -1
v -0.979124 0.0902468 -1
l 159 160
v -0.978309 0.0906594 1
v -0.977476 0.0910687 1
l 161 162
v -0.977476 0.0910687 -1
v -0.978309 0.0906594 -1
l 163 164
v -0.977476 0.0910687 1
v -0.976626 0.0914749 1
l 165 166
v -0.976626 0.0914749 -1
v -0.977476 0.0910687 -1
l 167 168
v -0.976626 0.0914749 1
v -0.975759 0.091878 1
l 169 170
v -0.975759 0.091878 -1
v -0.976626 0.0914749 -1
l 171 172
v -0.975759 0.091878 1
v -0.974874 0.0922778 1
l 173 174
v -0.974874 0.0922778 -1
v -0.975759 0.091878 -1
l 175 176
v -0.974874 0.0922778 1
v -0.973972 0.0926743 1
l 177 178
v -0.973972 0.0926743 -1
v -0.974874 0.0922778 -1
l 179 180
v -0.973972 0.0926743 1
v -0.973053 0.0930677 1
l 181 182
v -0.973053 0.0930677 -1
v -0.973972 0.0926743 -1
l 183 184
v -0.973053 0.0930677 1
v -0.972116 0.0934578 1
l 185 186
v -0.972116 0.0934578 -1
v -0.973053 0.0930677 -1
l 187 188
v -0.972116 0.0934578 1
v -0.971163 0.0938446 1
l 189 190
v -0.971163 0.0938446 -1
v -0.972116 0.0934578 -1
l 191 192
v -0.971163 0.0938446 1
v -0.970192 0.0942281 1
l 193 194
v -0.970192 0.0942281 -1
v -0.971163 0.0938446 -1
l 195 196
v -0.970192 0.0942281 1
v -0.969204 0.0946083 1
l 197 198
v -0.969204 0.0946083 -1
v -0.970192 0.0942281 -1
l 199 200
v -0.969204 0.0946083 1
v -0.967176 0.0953587 1
l 201 202
v -0.967176 0.0953587 -1
v -0.969204 0.0946083 -1
l 203 204
v -0.967176 0.0953587 1
v -0.965081 0.0960956 1
l 205 206
v -0.965081 0.0960956 -1
v -0.967176 0.0953587 -1
l 207 208
v -0.965081 0.0960956 1
v -0.962918 0.0968189 1
l 209 210
v -0.962918 0.0968189 -1
v -0.965081 0.0960956 -1
l 211 212
v -0.962918 0.0968189 1
v -0.960687 0.0975284 1
l 213 214
v -0.960687 0.0975284 -1
v -0.962918 0.0968189 -1
l 215 216
v -0.960687 0.0975284 1
v -0.95839 0.0982241 1
l 217 218
v -0.95839 0.0982241 -1
v -0.960687 0.0975284 -1
l 219 220
v -0.95839 0.0982241 1
v -0.956025 0.0989057 1
l 221 222
v -0.956025 0.0989057 -1
v -0.95839 0.0982241 -1
l 223 224
v -0.956025 0.0989057 1
v -0.953595 0.099573 1
l 225 226
v -0.953595 0.099573 -1
v -0.956025 0.0989057 -1
l 227 228
v -0.953595 0.099573 1
v -0.951098 0.100226 1
l 229 230
v -0.951098 0.100226 -1
v -0.953595 0.099573 -1
l 231 232
v -0.951098 0.100226 1
v -0.948535 0.100865 1
l 233 234
v -0.948535 0.100865 -1
v -0.951098 0.100226 -1
l 235 236
v -0.948535 0.100865 1
v -0.945907 0.101488 1
l 237 238
v -0.945907 0.101488 -1
v -0.948535 0.100865 -1
l 239 240
v -0.945907 0.101488 1
v -0.943215 0.102097 1
l 241 242
v -0.943215 0.102097 -1
v -0.945907 0.101488 -1
l 243 244
v -0.943215 0.102097 1
v -0.940457 0.102691 1
l 245 246
v -0.940457 0.102691 -1
v -0.943215 0.102097 -1
l 247 248
v -0.940457 0.102691 1
v -0.937636 0.10327 1
l 249 250
v -0.937636 0.10327 -1
v -0.940457 0.102691 -1
l 251 252
v -0.937636 0.10327 1
v -0.934751 0.103834 1
l 253 254
v -0.934751 0.103834 -1
v -0.937636 0.10327 -1
l 255 256
v -0.934751 0.103834 1
v -0.931802 0.104382 1
l 257 258
v -0.931802 0.104382 -1
v -0.934751 0.103834 -1
l 259 260
v -0.931802 0.104382 1
v -0.925717 0.105432 1
l 261 262
v -0.925717 0.105432 -1
v -0.931802 0.104382 -1
l 263 264
v -0.925717 0.105432 1
v -0.919385 0.106418 1
l 265 266
v -0.919385 0.106418 -1
v -0.925717 0.105432 -1
l 267 268
v -0.919385 0.106418 1
v -0.912808 0.10734 1
l 269 270
v -0.912808 0.10734 -1
v -0.919385 0.106418 -1
l 271 272
v -0.912808 0.10734 1
v -0.905991 0.108197 1
l 273 274
v -0.905991 0.108197 -1
v -0.912808 0.10734 -1
l 275 276
v -0.905991 0.108197 1
v -0.898938 0.108987 1
l 277 278
v -0.898938 0.108987 -1
v -0.905991 0.108197 -1
l 279 280
v -0.898938 0.108987 1
v -0.891653 0.10971 1
l 281 282
v -0.891653 0.10971 -1
v -0.898938 0.108987 -1
l 283 284
v -0.891653 0.10971 1
v -0.884141 0.110365 1
l 285 286
v -0.884141 0.110365 -1
v -0.891653 0.10971 -1
l 287 288
v -0.884141 0.110365 1
v -0.876405 0.11095 1
l 289 290
v -0.876405 0.11095 -1
v -0.884141 0.110365 -1
l 291 292
v -0.876405 0.11095 1
v -0.86845 0.111466 1
l 293 294
v -0.86845 0.111466 -1
v -0.876405 0.11095 -1
l 295 296
v -0.86845 0.111466 1
v -0.860281 0.111912 1
l 297 298
v -0.860281 0.111912 -1
v -0.86845 0.111466 -1
l 299 300
v -0.860281 0.111912 1
v -0.851903 0.112286 1
l 301 302
v -0.851903 0.112286 -1
v -0.860281 0.111912 -1
l 303 304
v -0.851903 0.112286 1
v -0.84332 0.11259 1
l 305 306
v -0.84332 0.11259 -1
v -0.851903 0.112286 -1
l 307 308
v -0.84332 0.11259 1
v -0.834538 0.112822 1
l 309 310
v -0.834538 0.112822 -1
v -0.84332 0.11259 -1
l 311 312
v -0.834538 0.112822 1
v -0.816397 0.113071 1
l 313 314
v -0.816397 0.113071 -1
v -0.834538 0.112822 -1
l 315 316
v -0.816397 0.113071 1
v -0.797521 0.113032 1
l 317 318
v -0.797521 0.113032 -1
v -0.816397 0.113071 -1
l 319 320
v -0.797521 0.113032 1
v -0.777955 0.112707 1
l 321 322
v -0.777955 0.112707 -1
v -0.797521 0.113032 -1
l 323 324
v -0.777955 0.112707 1
v -0.757744 0.112099 1
l 325 326
v -0.757744 0.112099 -1
v -0.777955 0.112707 -1
l 327 328
v -0.757744 0.112099 1
v -0.736934 0.111214 1
l 329 330
v -0.736934 0.111214 -1
v -0.757744 0.112099 -1
l 331 332
v -0.736934 0.111214 1
v -0.715576 0.110056 1
l 333 334
v -0.715576 0.110056 -1
v -0.736934 0.111214 -1
l 335 336
v -0.715576 0.110056 1
v -0.693716 0.108636 1
l 337 338
v -0.693716 0.108636 -1
v -0.715576 0.110056 -1
l 339 340
v -0.693716 0.108636 1
v -0.671408 0.106963 1
l 341 342
v -0.671408 0.106963 -1
v -0.693716 0.108636 -1
l 343 344
v -0.671408 0.106963 1
v -0.625648 0.102903 1
l 345 346
v -0.625648 0.102903 -1
v -0.671408 0.106963 -1
l 347 348
v -0.625648 0.102903 1
v -0.578721 0.0979828 1
l 349 350
v -0.578721 0.0979828 -1
v -0.625648 0.102903 -1
l 351 352
v -0.578721 0.0979828 1
v -0.531057 0.0923219 1
l 353 354
v -0.531057 0.0923219 -1
v -0.578721 0.0979828 -1
l 355 356
v -0.531057 0.0923219 1
v -0.459144 0.0827279 1
l 357 358
v -0.459144 0.0827279 -1
v -0.531057 0.0923219 -1
l 359 360
v -0.459144 0.0827279 1
v -0.364802 0.0685825 1
l 361 362
v -0.364802 0.0685825 -1
v -0.459144 0.0827279 -1
l 363 364
v -0.364802 0.0685825 1
v -0.254221 0.050185 1
l 365 366
v -0.254221 0.050185 -1
v -0.364802 0.0685825 -1
l 367 368
v -0.254221 0.050185 1
v -0.124353 0.0263856 1
l 369 370
v -0.124353 0.0263856 -1
v -0.254221 0.050185 -1
l 371 372
v -0.124353 0.0263856 1
v -0.0144517 0.00432413 1
l 373 374
v -0.0144517 0.00432413 -1
v -0.124353 0.0263856 -1
l 375 376
v 8.78932e-05 0.00125693 1
v 8.78932e-05 0.00125693 -1
l 377 378
v -0.0144517 0.00432413 1
v 8.78932e-05 0.00125693 1
l 379 380
v 8.78932e-05 0.00125693 -1
v -0.0144517 0.00432413 -1
l 381 382
v -8.78932e-05 -0.00125693 1
v -8.78932e-05 -0.00125693 -1
l 383 384
v 8.78932e-05 0.00125693 1
v -8.78932e-05 -0.00125693 1
l 385 386
v -8.78932e-05 -0.00125693 -1
v 8.78932e-05 0.00125693 -1
l 387 388
v -8.78932e-05 -0.00125693 1
v -0.111144 -0.00801482 1
l 389 390
v -0.111144 -0.00801482 -1
v -8.78932e-05 -0.00125693 -1
l 391 392
v -0.111144 -0.00801482 1
v -0.23781 -0.0135973 1
l 393 394
v -0.23781 -0.0135973 -1
v -0.111144 -0.00801482 -1
l 395 396
v -0.23781 -0.0135973 1
v -0.347564 -0.0167056 1
l 397 398
v -0.347564 -0.0167056 -1
v -0.23781 -0.0135973 -1
l 399 400
v -0.347564 -0.0167056 1
v -0.442084 -0.0179515 1
l 401 402
v -0.442084 -0.0179515 -1
v -0.347564 -0.0167056 -1
l 403 404
v -0.442084 -0.0179515 1
v -0.514573 -0.0178128 1
l 405 406
v -0.514573 -0.0178128 -1
v -0.442084 -0.0179515 -1
l 407 408
v -0.514573 -0.0178128 1
v -0.562807 -0.0170755 1
l 409 410
v -0.562807 -0.0170755 -1
v -0.514573 -0.0178128 -1
l 411 412
v -0.562807 -0.0170755 1
v -0.610435 -0.0157404 1
l 413 414
v -0.610435 -0.0157404 -1
v -0.562807 -0.0170755 -1
l 415 416
v -0.610435 -0.0157404 1
v -0.657008 -0.0137435 1
l 417 418
v -0.657008 -0.0137435 -1
v -0.610435 -0.0157404 -1
l 419 420
v -0.657008 -0.0137435 1
v -0.67976 -0.0124799 1
l 421 422
v -0.67976 -0.0124799 -1
v -0.657008 -0.0137435 -1
l 423 424
v -0.67976 -0.0124799 1
v -0.702084 -0.0110322 1
l 425 426
v -0.702084 -0.0110322 -1
v -0.67976 -0.0124799 -1
l 427 428
v -0.702084 -0.0110322 1
v -0.723928 -0.00939644 1
l 429 430
v -0.723928 -0.00939644 -1
v -0.702084 -0.0110322 -1
l 431 432
v -0.723928 -0.00939644 1
v -0.745241 -0.0075698 1
l 433 434
v -0.745241 -0.0075698 -1
v -0.723928 -0.00939644 -1
l 435 436
v -0.745241 -0.0075698 1
v -0.76597 -0.0055509 1
l 437 438
v -0.76597 -0.0055509 -1
v -0.745241 -0.0075698 -1
l 439 440
v -0.76597 -0.0055509 1
v -0.78607 -0.00333991 1
l 441 442
v -0.78607 -0.00333991 -1
v -0.76597 -0.0055509 -1
l 443 444
v -0.78607 -0.00333991 1
v -0.805491 -0.000938494 1
l 445 446
v -0.805491 -0.000938494 -1
v -0.78607 -0.00333991 -1
l 447 448
v -0.805491 -0.000938494 1
v -0.824188 0.00165016 1
l 449 450
v -0.824188 0.00165016 -1
v -0.805491 -0.000938494 -1
l 451 452
v -0.824188 0.00165016 1
v -0.842118 0.00442119 1
l 453 454
v -0.842118 0.00442119 -1
v -0.824188 0.00165016 -1
l 455 456
v -0.842118 0.00442119 1
v -0.850783 0.00587317 1
l 457 458
v -0.850783 0.00587317 -1
v -0.842118 0.00442119 -1
l 459 460
v -0.850783 0.00587317 1
v -0.859239 0.00736825 1
l 461 462
v -0.859239 0.00736825 -1
v -0.850783 0.00587317 -1
l 463 464
v -0.859239 0.00736825 1
v -0.867484 0.00890544 1
l 465 466
v -0.867484 0.00890544 -1
v -0.859239 0.00736825 -1
l 467 468
v -0.867484 0.00890544 1
v -0.875511 0.0104836 1
l 469 470
v -0.875511 0.0104836 -1
v -0.867484 0.00890544 -1
l 471 472
v -0.875511 0.0104836 1
v -0.883317 0.0121016 1
l 473 474
v -0.883317 0.0121016 -1
v -0.875511 0.0104836 -1
l 475 476
v -0.883317 0.0121016 1
v -0.890896 0.0137581 1
l 477 478
v -0.890896 0.0137581 -1
v -0.883317 0.0121016 -1
l 479 480
v -0.890896 0.0137581 1
v -0.898244 0.0154519 1
l 481 482
v -0.898244 0.0154519 -1
v -0.890896 0.0137581 -1
l 483 484
v -0.898244 0.0154519 1
v -0.905358 0.0171815 1
l 485 486
v -0.905358 0.0171815 -1
v -0.898244 0.0154519 -1
l 487 488
v -0.905358 0.0171815 1
v -0.912232 0.0189456 1
l 489 490
v -0.912232 0.0189456 -1
v -0.905358 0.0171815 -1
l 491 492
v -0.912232 0.0189456 1
v -0.918864 0.0207425 1
l 493 494
v -0.918864 0.0207425 -1
v -0.912232 0.0189456 -1
l 495 496
v -0.918864 0.0207425 1
v -0.925248 0.0225708 1
l 497 498
v -0.925248 0.0225708 -1
v -0.918864 0.0207425 -1
l 499 500
v -0.925248 0.0225708 1
v -0.931382 0.024429 1
l 501 502
v -0.931382 0.024429 -1
v -0.925248 0.0225708 -1
l 503 504
v -0.931382 0.024429 1
v -0.937261 0.0263154 1
l 505 506
v -0.937261 0.0263154 -1
v -0.931382 0.024429 -1
l 507 508
v -0.937261 0.0263154 1
v -0.940105 0.0272686 1
l 509 510
v -0.940105 0.0272686 -1
v -0.937261 0.0263154 -1
l 511 512
v -0.940105 0.0272686 1
v -0.942883 0.0282283 1
l 513 514
v -0.942883 0.0282283 -1
v -0.940105 0.0272686 -1
l 515 516
v -0.942883 0.0282283 1
v -0.945597 0.0291943 1
l 517 518
v -0.945597 0.0291943 -1
v -0.942883 0.0282283 -1
l 519 520
v -0.945597 0.0291943 1
v -0.948245 0.0301663 1
l 521 522
v -0.948245 0.0301663 -1
v -0.945597 0.0291943 -1
l 523 524
v -0.948245 0.0301663 1
v -0.950826 0.0311442 1
l 525 526
v -0.950826 0.0311442 -1
v -0.948245 0.0301663 -1
l 527 528
v -0.950826 0.0311442 1
v -0.953342 0.0321277 1
l 529 530
v -0.953342 0.0321277 -1
v -0.950826 0.0311442 -1
l 531 532
v -0.953342 0.0321277 1
v -0.955791 0.0331166 1
l 533 534
v -0.955791 0.0331166 -1
v -0.953342 0.0321277 -1
l 535 536
v -0.955791 0.0331166 1
v -0.958172 0.0341107 1
l 537 538
v -0.958172 0.0341107 -1
v -0.955791 0.0331166 -1
l 539 540
v -0.958172 0.0341107 1
v -0.960487 0.0351099 1
l 541 542
v -0.960487 0.0351099 -1
v -0.958172 0.0341107 -1
l 543 544
v -0.960487 0.0351099 1
v -0.962733 0.0361139 1
l 545 546
v -0.962733 0.0361139 -1
v -0.960487 0.0351099 -1
l 547 548
v -0.962733 0.0361139 1
v -0.964911 0.0371226 1
l 549 550
v -0.964911 0.0371226 -1
v -0.962733 0.0361139 -1
l 551 552
v -0.964911 0.0371226 1
v -0.967022 0.0381356 1
l 553 554
v -0.967022 0.0381356 -1
v -0.964911 0.0371226 -1
l 555 556
v -0.967022 0.0381356 1
v -0.969063 0.0391529 1
l 557 558
v -0.969063 0.0391529 -1
v -0.967022 0.0381356 -1
l 559 560
v -0.969063 0.0391529 1
v -0.971035 0.0401743 1
l 561 562
v -0.971035 0.0401743 -1
v -0.969063 0.0391529 -1
l 563 564
v -0.971035 0.0401743 1
v -0.972938 0.0411995 1
l 565 566
v -0.972938 0.0411995 -1
v -0.971035 0.0401743 -1
l 567 568
v -0.972938 0.0411995 1
v -0.973864 0.0417135 1
l 569 570
v -0.973864 0.0417135 -1
v -0.972938 0.0411995 -1
l 571 572
v -0.973864 0.0417135 1
v -0.974772 0.0422284 1
l 573 574
v -0.974772 0.0422284 -1
v -0.973864 0.0417135 -1
l 575 576
v -0.974772 0.0422284 1
v -0.975663 0.0427442 1
l 577 578
v -0.975663 0.0427442 -1
v -0.974772 0.0422284 -1
l 579 580
v -0.975663 0.0427442 1
v -0.976536 0.0432608 1
l 581 582
v -0.976536 0.0432608 -1
v -0.975663 0.0427442 -1
l 583 584
v -0.976536 0.0432608 1
v -0.977391 0.0437783 1
l 585 586
v -0.977391 0.0437783 -1
v -0.976536 0.0432608 -1
l 587 588
v -0.977391 0.0437783 1
v -0.978229 0.0442966 1
l 589 590
v -0.978229 0.0442966 -1
v -0.977391 0.0437783 -1
l 591 592
v -0.978229 0.0442966 1
v -0.97905 0.0448156 1
l 593 594
v -0.97905 0.0448156 -1
v -0.978229 0.0442966 -1
l 595 596
v -0.97905 0.0448156 1
v -0.979853 0.0453354 1
l 597 598
v -0.979853 0.0453354 -1
v -0.97905 0.0448156 -1
l 599 600
v -0.979853 0.0453354 1
v -0.980638 0.0458559 1
l 601 602
v -0.980638 0.0458559 -1
v -0.979853 0.0453354 -1
l 603 604
v -0.980638 0.0458559 1
v -0.981405 0.0463772 1
l 605 606
v -0.981405 0.0463772 -1
v -0.980638 0.0458559 -1
l 607 608
v -0.981405 0.0463772 1
v -0.982155 0.0468992 1
l 609 610
v -0.982155 0.0468992 -1
v -0.981405 0.0463772 -1
l 611 612
v -0.982155 0.0468992 1
v -0.982888 0.0474218 1
l 613 614
v -0.982888 0.0474218 -1
v -0.982155 0.0468992 -1
l 615 616
v -0.982888 0.0474218 1
v -0.983602 0.0479451 1
l 617 618
v -0.983602 0.0479451 -1
v -0.982888 0.0474218 -1
l 619 620
v -0.983602 0.0479451 1
v -0.984299 0.0484691 1
l 621 622
v -0.984299 0.0484691 -1
v -0.983602 0.0479451 -1
l 623 624
v -0.984299 0.0484691 1
v -0.984977 0.0489936 1
l 625 626
v -0.984977 0.0489936 -1
v -0.984299 0.0484691 -1
l 627 628
v -0.984977 0.0489936 1
v -0.985638 0.0495188 1
l 629 630
v -0.985638 0.0495188 -1
v -0.984977 0.0489936 -1
l 631 632
v -0.985638 0.0495188 1
v -0.986282 0.0500445 1
l 633 634
v -0.986282 0.0500445 -1
v -0.985638 0.0495188 -1
l 635 636
v -0.986282 0.0500445 1
v -0.986907 0.0505708 1
l 637 638
v -0.986907 0.0505708 -1
v -0.986282 0.0500445 -1
l 639 640
v -0.986907 0.0505708 1
v -0.987514 0.0510976 1
l 641 642
v -0.987514 0.0510976 -1
v -0.986907 0.0505708 -1
l 643 644
v -0.987514 0.0510976 1
v -0.988104 0.051625 1
l 645 646
v -0.988104 0.051625 -1
v -0.987514 0.0510976 -1
l 647 648
v -0.988104 0.051625 1
v -0.988675 0.0521529 1
l 649 650
v -0.988675 0.0521529 -1
v -0.988104 0.051625 -1
l 651 652
v -0.988675 0.0521529 1
v -0.989229 0.0526812 1
l 653 654
v -0.989229 0.0526812 -1
v -0.988675 0.0521529 -1
l 655 656
v -0.989229 0.0526812 1
v -0.989765 0.05321 1
l 657 658
v -0.989765 0.05321 -1
v -0.989229 0.0526812 -1
l 659 660
v -0.989765 0.05321 1
v -0.990282 0.0537393 1
l 661 662
v -0.990282 0.0537393 -1
v -0.989765 0.05321 -1
l 663 664
v -0.990282 0.0537393 1
v -0.990782 0.054269 1
l 665 666
v -0.990782 0.054269 -1
v -0.990282 0.0537393 -1
l 667 668
v -0.990782 0.054269 1
v -0.991263 0.0547991 1
l 669 670
v -0.991263 0.0547991 -1
v -0.990782 0.054269 -1
l 671 672
v -0.991263 0.0547991 1
v -0.991727 0.0553296 1
l 673 674
v -0.991727 0.0553296 -1
v -0.991263 0.0547991 -1
l 675 676
v -0.991727 0.0553296 1
v -0.992172 0.0558605 1
l 677 678
v -0.992172 0.0558605 -1
v -0.991727 0.0553296 -1
l 679 680
v -0.992172 0.0558605 1
v -0.9926 0.0563918 1
l 681 682
v -0.9926 0.0563918 -1
v -0.992172 0.0558605 -1
l 683 684
v -0.9926 0.0563918 1
v -0.993009 0.0569235 1
l 685 686
v -0.993009 0.0569235 -1
v -0.9926 0.0563918 -1
l 687 688
v -0.993009 0.0569235 1
v -0.9934 0.0574562 1
l 689 690
v -0.9934 0.0574562 -1
v -0.993009 0.0569235 -1
l 691 692
v -0.9934 0.0574562 1
v -0.993775 0.0579933 1
l 693 694
v -0.993775 0.0579933 -1
v -0.9934 0.0574562 -1
l 695 696
v -0.993775 0.0579933 1
v -0.994134 0.0585392 1
l 697 698
v -0.994134 0.0585392 -1
v -0.993775 0.0579933 -1
l 699 700
v -0.994134 0.0585392 1
v -0.994479 0.0590979 1
l 701 702
v -0.994479 0.0590979 -1
v -0.994134 0.0585392 -1
l 703 704
v -0.994479 0.0590979 1
v -0.994812 0.0596736 1
l 705 706
v -0.994812 0.0596736 -1
v -0.994479 0.0590979 -1
l 707 708
v -0.994812 0.0596736 1
v -0.995134 0.0602705 1
l 709 710
v -0.995134 0.0602705 -1
v -0.994812 0.0596736 -1
l 711 712
v -0.995134 0.0602705 1
v -0.995447 0.0608928 1
l 713 714
v -0.995447 0.0608928 -1
v -0.995134 0.0602705 -1
l 715 716
v -0.995447 0.0608928 1
v -0.99575 0.0615445 1
l 717 718
v -0.99575 0.0615445 -1
v -0.995447 0.0608928 -1
l 719 720
v -0.99575 0.0615445 1
v -0.996047 0.0622327 1
l 721 722
v -0.996047 0.0622327 -1
v -0.99575 0.0615445 -1
l 723 724
v -0.996047 0.0622327 1
v -0.996331 0.0629756 1
l 725 726
v -0.996331 0.0629756 -1
v -0.996047 0.0622327 -1
l 727 728
v -0.996331 0.0629756 1
v -0.996601 0.0637942 1
l 729 730
v -0.996601 0.0637942 -1
v -0.996331 0.0629756 -1
l 731 732
v -0.996601 0.0637942 1
v -0.99685 0.0647094 1
l 733 734
v -0.99685 0.0647094 -1
v -0.996601 0.0637942 -1
l 735 736
v -0.99685 0.0647094 1
v -0.996967 0.0652098 1
l 737 738
v -0.996967 0.0652098 -1
v -0.99685 0.0647094 -1
l 739 740
v -0.996967 0.0652098 1
v -0.997076 0.0657422 1
l 741 742
v -0.997076 0.0657422 -1
v -0.996967 0.0652098 -1
l 743 744
v -0.997076 0.0657422 1
v -0.997178 0.0663093 1
l 745 746
v -0.997178 0.0663093 -1
v -0.997076 0.0657422 -1
l 747 748
v -0.997178 0.0663093 1
v -0.997273 0.0669137 1
l 749 750
v -0.997273 0.0669137 -1
v -0.997178 0.0663093 -1
l 751 752
v -0.997273 0.0669137 1
v -0.997359 0.067558 1
l 753 754
v -0.997359 0.067558 -1
v -0.997273 0.0669137 -1
l 755 756
v -0.997359 0.067558 1
v -0.997437 0.0682448 1
l 757 758
v -0.997437 0.0682448 -1
v -0.997359 0.067558 -1
l 759 760
v -0.997437 0.0682448 1
v -0.997564 0.0697565 1
l 761 762
v -0.997564 0.0697565 -1
v -0.997437 0.0682448 -1
l 763 764
