v -0.997564 0.0697565 1
v -0.784586 1.04681 1
l 1 2
v -0.997398 0.0705205 -1
v -1.21038 -0.906537 -1
l 3 4
v -0.997398 0.0705205 1
v -0.76665 1.04353 1
l 5 6
v -0.997228 0.0712358 -1
v -1.22798 -0.901778 -1
l 7 8
v -0.997228 0.0712358 1
v -0.747579 1.03957 1
l 9 10
v -0.997055 0.0719051 -1
v -1.2467 -0.896431 -1
l 11 12
v -0.997055 0.0719051 1
v -0.727476 1.03488 1
l 13 14
v -0.99688 0.0725311 -1
v -1.26646 -0.890447 -1
l 15 16
v -0.99688 0.0725311 1
v -0.706141 1.02933 1
l 17 18
v -0.996702 0.0731164 -1
v -1.28744 -0.883686 -1
l 19 20
v -0.996702 0.0731164 1
v -0.683913 1.02294 1
l 21 22
v -0.996522 0.0736637 -1
v -1.30931 -0.876159 -1
l 23 24
v -0.996522 0.0736637 1
v -0.660866 1.01565 1
l 25 26
v -0.99634 0.0741758 -1
v -1.332 -0.867809 -1
l 27 28
v -0.99634 0.0741758 1
v -0.637094 1.00742 1
l 29 30
v -0.996155 0.0746551 -1
v -1.3554 -0.858588 -1
l 31 32
v -0.996155 0.0746551 1
v -0.601316 0.993406 1
l 33 34
v -0.99578 0.0755267 -1
v -1.39062 -0.843224 -1
l 35 36
v -0.99578 0.0755267 1
v -0.554008 0.972654 1
l 37 38
v -0.9954 0.0762998 -1
v -1.43717 -0.820827 -1
l 39 40
v -0.9954 0.0762998 1
v -0.510804 0.951038 1
l 41 42
v -0.995014 0.0769958 -1
v -1.47961 -0.797743 -1
l 43 44
v -0.995014 0.0769958 1
v -0.475768 0.93162 1
l 45 46
v -0.994625 0.0776361 -1
v -1.51387 -0.776988 -1
l 47 48
v -0.994625 0.0776361 1
v -0.449983 0.916305 1
l 49 50
v -0.994233 0.0782392 -1
v -1.53888 -0.760429 -1
l 51 52
v -0.994233 0.0782392 1
v -0.425793 0.900964 1
l 53 54
v -0.993838 0.078812 -1
v -1.56228 -0.743913 -1
l 55 56
v -0.993838 0.078812 1
v -0.401285 0.884344 1
l 57 58
v -0.993436 0.0793582 -1
v -1.58599 -0.726173 -1
l 59 60
v -0.993436 0.0793582 1
v -0.377248 0.866958 1
l 61 62
v -0.993026 0.079882 -1
v -1.60921 -0.707718 -1
l 63 64
v -0.993026 0.079882 1
v -0.353866 0.848956 1
l 65 66
v -0.992606 0.0803872 -1
v -1.63177 -0.688687 -1
l 67 68
v -0.992606 0.0803872 1
v -0.331896 0.831028 1
l 69 70
v -0.992175 0.0808778 -1
v -1.65288 -0.669763 -1
l 71 72
v -0.992175 0.0808778 1
v -0.311534 0.813495 1
l 73 74
v -0.991729 0.0813576 -1
v -1.67237 -0.65126 -1
l 75 76
v -0.991729 0.0813576 1
v -0.293292 0.79703 1
l 77 78
v -0.991267 0.0818306 -1
v -1.6897 -0.633841 -1
l 79 80
v -0.991267 0.0818306 1
v -0.276962 0.781665 1
l 81 82
v -0.990788 0.0823001 -1
v -1.70509 -0.617534 -1
l 83 84
v -0.990788 0.0823001 1
v -0.261657 0.766674 1
l 85 86
v -0.990291 0.0827668 -1
v -1.71942 -0.601607 -1
l 87 88
v -0.990291 0.0827668 1
v -0.247228 0.751988 1
l 89 90
v -0.989776 0.0832305 -1
v -1.73284 -0.585991 -1
l 91 92
v -0.989776 0.0832305 1
v -0.233412 0.737382 1
l 93 94
v -0.989243 0.0836914 -1
v -1.74561 -0.57046 -1
l 95 96
v -0.989243 0.0836914 1
v -0.220394 0.723122 1
l 97 98
v -0.988692 0.0841493 -1
v -1.75754 -0.555282 -1
l 99 100
v -0.988692 0.0841493 1
v -0.207999 0.709064 1
l 101 102
v -0.988124 0.0846043 -1
v -1.76882 -0.54031 -1
l 103 104
v -0.988124 0.0846043 1
v -0.196249 0.695288 1
l 105 106
v -0.987538 0.0850564 -1
v -1.77941 -0.525627 -1
l 107 108
v -0.987538 0.0850564 1
v -0.185083 0.68177 1
l 109 110
v -0.986934 0.0855055 -1
v -1.78939 -0.511208 -1
l 111 112
v -0.986934 0.0855055 1
v -0.174479 0.66853 1
l 113 114
v -0.986312 0.0859517 -1
v -1.79877 -0.497073 -1
l 115 116
v -0.986312 0.0859517 1
v -0.164417 0.655591 1
l 117 118
v -0.985672 0.0863949 -1
v -1.80757 -0.483245 -1
l 119 120
v -0.985672 0.0863949 1
v -0.154842 0.64292 1
l 121 122
v -0.985015 0.0868351 -1
v -1.81585 -0.46969 -1
l 123 124
v -0.985015 0.0868351 1
v -0.145733 0.63053 1
l 125 126
v -0.98434 0.0872722 -1
v -1.82362 -0.456423 -1
l 127 128
v -0.98434 0.0872722 1
v -0.137105 0.61849 1
l 129 130
v -0.983648 0.0877064 -1
v -1.83088 -0.443511 -1
l 131 132
v -0.983648 0.0877064 1
v -0.128852 0.60667 1
l 133 134
v -0.982938 0.0881375 -1
v -1.83773 -0.430827 -1
l 135 136
v -0.982938 0.0881375 1
v -0.120996 0.595144 1
l 137 138
v -0.98221 0.0885655 -1
v -1.84415 -0.418441 -1
l 139 140
v -0.98221 0.0885655 1
v -0.113528 0.583935 1
l 141 142
v -0.981465 0.0889905 -1
v -1.85015 -0.406378 -1
l 143 144
v -0.981465 0.0889905 1
v -0.1064 0.572996 1
l 145 146
v -0.980702 0.0894124 -1
v -1.85577 -0.394593 -1
l 147 148
v -0.980702 0.0894124 1
v -0.0995858 0.562312 1
l 149 150
v -0.979922 0.0898312 -1
v -1.86104 -0.383068 -1
l 151 152
v -0.979922 0.0898312 1
v -0.0930837 0.551911 1
l 153 154
v -0.979124 0.0902468 -1
v -1.86596 -0.371833 -1
l 155 156
v -0.979124 0.0902468 1
v -0.086847 0.541735 1
l 157 158
v -0.978309 0.0906594 -1
v -1.87059 -0.360828 -1
l 159 160
v -0.978309 0.0906594 1
v -0.0809113 0.531882 1
l 161 162
v -0.977476 0.0910687 -1
v -1.87487 -0.350154 -1
l 163 164
v -0.977476 0.0910687 1
v -0.0752042 0.522236 1
l 165 166
v -0.976626 0.0914749 -1
v -1.8789 -0.339692 -1
l 167 168
v -0.976626 0.0914749 1
v -0.0697275 0.512823 1
l 169 170
v -0.975759 0.091878 -1
v -1.88266 -0.32947 -1
l 171 172
v -0.975759 0.091878 1
v -0.0644853 0.503679 1
l 173 174
v -0.974874 0.0922778 -1
v -1.88615 -0.319524 -1
l 175 176
v -0.974874 0.0922778 1
v -0.0594375 0.49474 1
l 177 178
v -0.973972 0.0926743 -1
v -1.88941 -0.309788 -1
l 179 180
v -0.973972 0.0926743 1
v -0.0545956 0.486053 1
l 181 182
v -0.973053 0.0930677 -1
v -1.89243 -0.300311 -1
l 183 184
v -0.973053 0.0930677 1
v -0.0499221 0.477554 1
l 185 186
v -0.972116 0.0934578 -1
v -1.89525 -0.291028 -1
l 187 188
v -0.972116 0.0934578 1
v -0.0454296 0.469293 1
l 189 190
v -0.971163 0.0938446 -1
v -1.89785 -0.28199 -1
l 191 192
v -0.971163 0.0938446 1
v -0.0410928 0.461228 1
l 193 194
v -0.970192 0.0942281 -1
v -1.90026 -0.273155 -1
l 195 196
v -0.970192 0.0942281 1
v -0.0369072 0.453366 1
l 197 198
v -0.969204 0.0946083 -1
v -1.90249 -0.26453 -1
l 199 200
v -0.969204 0.0946083 1
v -0.0313905 0.441749 1
l 201 202
v -0.967176 0.0953587 -1
v -1.90499 -0.251782 -1
l 203 204
v -0.967176 0.0953587 1
v -0.0238178 0.427134 1
l 205 206
v -0.965081 0.0960956 -1
v -1.90844 -0.235679 -1
l 207 208
v -0.965081 0.0960956 1
v -0.0166981 0.413223 1
l 209 210
v -0.962918 0.0968189 -1
v -1.9113 -0.220308 -1
l 211 212
v -0.962918 0.0968189 1
v -0.00997197 0.399959 1
l 213 214
v -0.960687 0.0975284 -1
v -1.91363 -0.205612 -1
l 215 216
v -0.960687 0.0975284 1
v -0.00359393 0.387308 1
l 217 218
v -0.95839 0.0982241 -1
v -1.91548 -0.191555 -1
l 219 220
v -0.95839 0.0982241 1
v 0.00248332 0.375213 1
l 221 222
v -0.956025 0.0989057 -1
v -1.9169 -0.178083 -1
l 223 224
v -0.956025 0.0989057 1
v 0.00829121 0.363657 1
l 225 226
v -0.953595 0.099573 -1
v -1.91791 -0.165178 -1
l 227 228
v -0.953595 0.099573 1
v 0.0138656 0.352596 1
l 229 230
v -0.951098 0.100226 -1
v -1.91856 -0.152797 -1
l 231 232
v -0.951098 0.100226 1
v 0.0192349 0.342 1
l 233 234
v -0.948535 0.100865 -1
v -1.91887 -0.140909 -1
l 235 236
v -0.948535 0.100865 1
v 0.0244249 0.331837 1
l 237 238
v -0.945907 0.101488 -1
v -1.91887 -0.129484 -1
l 239 240
v -0.945907 0.101488 1
v 0.029458 0.322083 1
l 241 242
v -0.943215 0.102097 -1
v -1.91858 -0.118498 -1
l 243 244
v -0.943215 0.102097 1
v 0.0343549 0.31271 1
l 245 246
v -0.940457 0.102691 -1
v -1.91803 -0.107921 -1
l 247 248
v -0.940457 0.102691 1
v 0.0391334 0.303694 1
l 249 250
v -0.937636 0.10327 -1
v -1.91723 -0.0977319 -1
l 251 252
v -0.937636 0.10327 1
v 0.0438082 0.295019 1
l 253 254
v -0.934751 0.103834 -1
v -1.91619 -0.0879145 -1
l 255 256
v -0.934751 0.103834 1
v 0.0483961 0.286651 1
l 257 258
v -0.931802 0.104382 -1
v -1.91495 -0.0784348 -1
l 259 260
v -0.931802 0.104382 1
v 0.0536412 0.274385 1
l 261 262
v -0.925717 0.105432 -1
v -1.91116 -0.0645709 -1
l 263 264
v -0.925717 0.105432 1
v 0.0623672 0.259344 1
l 265 266
v -0.919385 0.106418 -1
v -1.90747 -0.0474931 -1
l 267 268
v -0.919385 0.106418 1
v 0.0709305 0.245255 1
l 269 270
v -0.912808 0.10734 -1
v -1.90312 -0.0314959 -1
l 271 272
v -0.912808 0.10734 1
v 0.07939 0.232012 1
l 273 274
v -0.905991 0.108197 -1
v -1.89819 -0.0164741 -1
l 275 276
v -0.905991 0.108197 1
v 0.0877921 0.219528 1
l 277 278
v -0.898938 0.108987 -1
v -1.89272 -0.00234421 -1
l 279 280
v -0.898938 0.108987 1
v 0.0961759 0.207718 1
l 281 282
v -0.891653 0.10971 -1
v -1.88677 0.0109787 -1
l 283 284
v -0.891653 0.10971 1
v 0.104572 0.196513 1
l 285 286
v -0.884141 0.110365 -1
v -1.88037 0.0235617 -1
l 287 288
v -0.884141 0.110365 1
v 0.113007 0.185844 1
l 289 290
v -0.876405 0.11095 -1
v -1.87355 0.0354711 -1
l 291 292
v -0.876405 0.11095 1
v 0.121499 0.175669 1
l 293 294
v -0.86845 0.111466 -1
v -1.86635 0.0467469 -1
l 295 296
v -0.86845 0.111466 1
v 0.130066 0.165935 1
l 297 298
v -0.860281 0.111912 -1
v -1.8588 0.0574427 -1
l 299 300
v -0.860281 0.111912 1
v 0.13872 0.156605 1
l 301 302
v -0.851903 0.112286 -1
v -1.8509 0.0675929 -1
l 303 304
v -0.851903 0.112286 1
v 0.147472 0.147634 1
l 305 306
v -0.84332 0.11259 -1
v -1.8427 0.0772421 -1
l 307 308
v -0.84332 0.11259 1
v 0.156331 0.139002 1
l 309 310
v -0.834538 0.112822 -1
v -1.83419 0.0864097 -1
l 311 312
v -0.834538 0.112822 1
v 0.165368 0.126528 1
l 313 314
v -0.816397 0.113071 -1
v -1.8163 0.099365 -1
l 315 316
v -0.816397 0.113071 1
v 0.183601 0.111019 1
l 317 318
v -0.797521 0.113032 -1
v -1.79752 0.115083 -1
l 319 320
v -0.797521 0.113032 1
v 0.202341 0.096432 1
l 321 322
v -0.777955 0.112707 -1
v -1.77782 0.129307 -1
l 323 324
v -0.777955 0.112707 1
v 0.221593 0.0826493 1
l 325 326
v -0.757744 0.112099 -1
v -1.75729 0.142157 -1
l 327 328
v -0.757744 0.112099 1
v 0.241352 0.0695703 1
l 329 330
v -0.736934 0.111214 -1
v -1.73603 0.153743 -1
l 331 332
v -0.736934 0.111214 1
v 0.261601 0.0571135 1
l 333 334
v -0.715576 0.110056 -1
v -1.71411 0.164156 -1
l 335 336
v -0.715576 0.110056 1
v 0.28232 0.0452216 1
l 337 338
v -0.693716 0.108636 -1
v -1.69161 0.173471 -1
l 339 340
v -0.693716 0.108636 1
v 0.303482 0.0338364 1
l 341 342
v -0.671408 0.106963 -1
v -1.66861 0.181763 -1
l 343 344
v -0.671408 0.106963 1
v 0.32468 0.0185932 1
l 345 346
v -0.625648 0.102903 -1
v -1.62174 0.191273 -1
l 347 348
v -0.625648 0.102903 1
v 0.3689 -0.00137458 1
l 349 350
v -0.578721 0.0979828 -1
v -1.57327 0.202261 -1
l 351 352
v -0.578721 0.0979828 1
v 0.4143 -0.0199558 1
l 353 354
v -0.531057 0.0923219 -1
v -1.52408 0.210261 -1
l 355 356
v -0.531057 0.0923219 1
v 0.460161 -0.0399191 1
l 357 358
v -0.459144 0.0827279 -1
v -1.45036 0.214969 -1
l 359 360
v -0.459144 0.0827279 1
v 0.529801 -0.0655512 1
l 361 362
v -0.364802 0.0685825 -1
v -1.35375 0.216862 -1
l 363 364
v -0.364802 0.0685825 1
v 0.621639 -0.0955336 1
l 365 366
v -0.254221 0.050185 -1
v -1.24066 0.214301 -1
l 367 368
v -0.254221 0.050185 1
v 0.729398 -0.130071 1
l 369 370
v -0.124353 0.0263856 -1
v -1.10797 0.206641 -1
l 371 372
v -0.124353 0.0263856 1
v 0.856088 -0.170427 1
l 373 374
v -0.0144517 0.00432413 -1
v -0.994893 0.201137 -1
l 375 376
v 8.78932e-05 0.00125693 1
v 8.78932e-05 0.00125693 0
l 377 378
v -0.0144517 0.00432413 1
v 0.964013 -0.202089 1
l 379 380
v 8.78932e-05 0.00125693 -1
v -0.978377 0.20767 -1
l 381 382
v -8.78932e-05 -0.00125693 1
v -8.78932e-05 -0.00125693 0
l 383 384
v 8.78932e-05 0.00125693 1
v -0.0696686 -0.996307 1
l 385 386
v -8.78932e-05 -0.00125693 -1
v 0.0696686 0.996307 -1
l 387 388
v -8.78932e-05 -0.00125693 1
v -0.998242 -0.0619955 1
l 389 390
v -0.111144 -0.00801482 -1
v 0.887009 0.0527237 -1
l 391 392
v -0.111144 -0.00801482 1
v -1.11017 -0.0520449 1
l 393 394
v -0.23781 -0.0135973 -1
v 0.76122 0.0304328 -1
l 395 396
v -0.23781 -0.0135973 1
v -1.23741 -0.0419064 1
l 397 398
v -0.347564 -0.0167056 -1
v 0.652036 0.0116034 -1
l 399 400
v -0.347564 -0.0167056 1
v -1.34748 -0.0298858 1
l 401 402
v -0.442084 -0.0179515 -1
v 0.557829 -0.00477132 -1
l 403 404
v -0.442084 -0.0179515 1
v -1.44208 -0.0160379 1
l 405 406
v -0.514573 -0.0178128 -1
v 0.485425 -0.0197264 -1
l 407 408
v -0.514573 -0.0178128 1
v -1.51446 -0.00252941 1
l 409 410
v -0.562807 -0.0170755 -1
v 0.437076 -0.0323589 -1
l 411 412
v -0.562807 -0.0170755 1
v -1.56241 0.0109457 1
l 413 414
v -0.610435 -0.0157404 -1
v 0.389172 -0.0437616 -1
l 415 416
v -0.610435 -0.0157404 1
v -1.60952 0.027097 1
l 417 418
v -0.657008 -0.0137435 -1
v 0.342075 -0.0565809 -1
l 419 420
v -0.657008 -0.0137435 1
v -1.65547 0.0417083 1
l 421 422
v -0.67976 -0.0124799 -1
v 0.318702 -0.0679318 -1
l 423 424
v -0.67976 -0.0124799 1
v -1.67766 0.0522317 1
l 425 426
v -0.702084 -0.0110322 -1
v 0.29582 -0.0757438 -1
l 427 428
v -0.702084 -0.0110322 1
v -1.69929 0.0636439 1
l 429 430
v -0.723928 -0.00939644 -1
v 0.273279 -0.0840726 -1
l 431 432
v -0.723928 -0.00939644 1
v -1.72028 0.0759996 1
l 433 434
v -0.745241 -0.0075698 -1
v 0.251107 -0.0929659 -1
l 435 436
v -0.745241 -0.0075698 1
v -1.74053 0.0893621 1
l 437 438
v -0.76597 -0.0055509 -1
v 0.229321 -0.102483 -1
l 439 440
v -0.76597 -0.0055509 1
v -1.75997 0.103794 1
l 441 442
v -0.78607 -0.00333991 -1
v 0.207934 -0.112685 -1
l 443 444
v -0.78607 -0.00333991 1
v -1.77851 0.119375 1
l 445 446
v -0.805491 -0.000938494 -1
v 0.186951 -0.123654 -1
l 447 448
v -0.805491 -0.000938494 1
v -1.79604 0.136203 1
l 449 450
v -0.824188 0.00165016 -1
v 0.166363 -0.135492 -1
l 451 452
v -0.824188 0.00165016 1
v -1.81246 0.154383 1
l 453 454
v -0.842118 0.00442119 -1
v 0.146149 -0.148311 -1
l 455 456
v -0.842118 0.00442119 1
v -1.82837 0.1697 1
l 457 458
v -0.850783 0.00587317 -1
v 0.135464 -0.159406 -1
l 459 460
v -0.850783 0.00587317 1
v -1.83551 0.179965 1
l 461 462
v -0.859239 0.00736825 -1
v 0.12549 -0.166723 -1
l 463 464
v -0.859239 0.00736825 1
v -1.8423 0.19066 1
l 465 466
v -0.867484 0.00890544 -1
v 0.115575 -0.174387 -1
l 467 468
v -0.867484 0.00890544 1
v -1.8487 0.201811 1
l 469 470
v -0.875511 0.0104836 -1
v 0.105706 -0.182422 -1
l 471 472
v -0.875511 0.0104836 1
v -1.8547 0.213453 1
l 473 474
v -0.883317 0.0121016 -1
v 0.0958684 -0.190868 -1
l 475 476
v -0.883317 0.0121016 1
v -1.86026 0.225623 1
l 477 478
v -0.890896 0.0137581 -1
v 0.0860424 -0.199764 -1
l 479 480
v -0.890896 0.0137581 1
v -1.86535 0.238364 1
l 481 482
v -0.898244 0.0154519 -1
v 0.0762053 -0.209154 -1
l 483 484
v -0.898244 0.0154519 1
v -1.86993 0.251714 1
l 485 486
v -0.905358 0.0171815 -1
v 0.0663314 -0.219081 -1
l 487 488
v -0.905358 0.0171815 1
v -1.87398 0.265738 1
l 489 490
v -0.912232 0.0189456 -1
v 0.0563852 -0.229611 -1
l 491 492
v -0.912232 0.0189456 1
v -1.87742 0.280491 1
l 493 494
v -0.918864 0.0207425 -1
v 0.0463275 -0.240803 -1
l 495 496
v -0.918864 0.0207425 1
v -1.88022 0.296053 1
l 497 498
v -0.925248 0.0225708 -1
v 0.0361073 -0.25274 -1
l 499 500
v -0.925248 0.0225708 1
v -1.8823 0.3125 1
l 501 502
v -0.931382 0.024429 -1
v 0.0256664 -0.2655 -1
l 503 504
v -0.931382 0.024429 1
v -1.88358 0.329925 1
l 505 506
v -0.937261 0.0263154 -1
v 0.014932 -0.279181 -1
l 507 508
v -0.937261 0.0263154 1
v -1.8854 0.344178 1
l 509 510
v -0.940105 0.0272686 -1
v 0.00803197 -0.290594 -1
l 511 512
v -0.940105 0.0272686 1
v -1.88531 0.35374 1
l 513 514
v -0.942883 0.0282283 -1
v 0.0023236 -0.298243 -1
l 515 516
v -0.942883 0.0282283 1
v -1.88497 0.363611 1
l 517 518
v -0.945597 0.0291943 -1
v -0.00351491 -0.306189 -1
l 519 520
v -0.945597 0.0291943 1
v -1.88434 0.373808 1
l 521 522
v -0.948245 0.0301663 -1
v -0.00950005 -0.314448 -1
l 523 524
v -0.948245 0.0301663 1
v -1.88342 0.384358 1
l 525 526
v -0.950826 0.0311442 -1
v -0.0156535 -0.323047 -1
l 527 528
v -0.950826 0.0311442 1
v -1.88217 0.395283 1
l 529 530
v -0.953342 0.0321277 -1
v -0.0219972 -0.332011 -1
l 531 532
v -0.953342 0.0321277 1
v -1.88058 0.406591 1
l 533 534
v -0.955791 0.0331166 -1
v -0.028549 -0.341347 -1
l 535 536
v -0.955791 0.0331166 1
v -1.87862 0.418319 1
l 537 538
v -0.958172 0.0341107 -1
v -0.0353401 -0.351092 -1
l 539 540
v -0.958172 0.0341107 1
v -1.87626 0.43049 1
l 541 542
v -0.960487 0.0351099 -1
v -0.0423998 -0.36127 -1
l 543 544
v -0.960487 0.0351099 1
v -1.87346 0.443134 1
l 545 546
v -0.962733 0.0361139 -1
v -0.0497619 -0.37191 -1
l 547 548
v -0.962733 0.0361139 1
v -1.87018 0.456272 1
l 549 550
v -0.964911 0.0371226 -1
v -0.0574606 -0.383036 -1
l 551 552
v -0.964911 0.0371226 1
v -1.86639 0.469938 1
l 553 554
v -0.967022 0.0381356 -1
v -0.065539 -0.39468 -1
l 555 556
v -0.967022 0.0381356 1
v -1.86204 0.484162 1
l 557 558
v -0.969063 0.0391529 -1
v -0.0740433 -0.406874 -1
l 559 560
v -0.969063 0.0391529 1
v -1.85707 0.498992 1
l 561 562
v -0.971035 0.0401743 -1
v -0.083033 -0.419665 -1
l 563 564
v -0.971035 0.0401743 1
v -1.85141 0.514454 1
l 565 566
v -0.972938 0.0411995 -1
v -0.0925644 -0.433081 -1
l 567 568
v -0.972938 0.0411995 1
v -1.84716 0.526733 1
l 569 570
v -0.973864 0.0417135 -1
v -0.0996457 -0.44382 -1
l 571 572
v -0.973864 0.0417135 1
v -1.84375 0.534959 1
l 573 574
v -0.974772 0.0422284 -1
v -0.104882 -0.451017 -1
l 575 576
v -0.974772 0.0422284 1
v -1.84013 0.543378 1
l 577 578
v -0.975663 0.0427442 -1
v -0.110302 -0.458406 -1
l 579 580
v -0.975663 0.0427442 1
v -1.8363 0.551967 1
l 581 582
v -0.976536 0.0432608 -1
v -0.115901 -0.465962 -1
l 583 584
v -0.976536 0.0432608 1
v -1.83222 0.560753 1
l 585 586
v -0.977391 0.0437783 -1
v -0.121703 -0.473714 -1
l 587 588
v -0.977391 0.0437783 1
v -1.8279 0.569745 1
l 589 590
v -0.978229 0.0442966 -1
v -0.127724 -0.48167 -1
l 591 592
v -0.978229 0.0442966 1
v -1.82332 0.57892 1
l 593 594
v -0.97905 0.0448156 -1
v -0.13396 -0.489808 -1
l 595 596
v -0.97905 0.0448156 1
v -1.81848 0.588286 1
l 597 598
v -0.979853 0.0453354 -1
v -0.140424 -0.498135 -1
l 599 600
v -0.979853 0.0453354 1
v -1.81336 0.597846 1
l 601 602
v -0.980638 0.0458559 -1
v -0.147132 -0.506654 -1
l 603 604
v -0.980638 0.0458559 1
v -1.80789 0.607683 1
l 605 606
v -0.981405 0.0463772 -1
v -0.154151 -0.51545 -1
l 607 608
v -0.981405 0.0463772 1
v -1.80215 0.61767 1
l 609 610
v -0.982155 0.0468992 -1
v -0.161409 -0.524393 -1
l 611 612
v -0.982155 0.0468992 1
v -1.79607 0.627884 1
l 613 614
v -0.982888 0.0474218 -1
v -0.168973 -0.533563 -1
l 615 616
v -0.982888 0.0474218 1
v -1.78962 0.63834 1
l 617 618
v -0.983602 0.0479451 -1
v -0.176871 -0.542973 -1
l 619 620
v -0.983602 0.0479451 1
v -1.78278 0.649039 1
l 621 622
v -0.984299 0.0484691 -1
v -0.18512 -0.552624 -1
l 623 624
v -0.984299 0.0484691 1
v -1.77558 0.659918 1
l 625 626
v -0.984977 0.0489936 -1
v -0.193694 -0.562455 -1
l 627 628
v -0.984977 0.0489936 1
v -1.76796 0.671043 1
l 629 630
v -0.985638 0.0495188 -1
v -0.20266 -0.57253 -1
l 631 632
v -0.985638 0.0495188 1
v -1.7599 0.682383 1
l 633 634
v -0.986282 0.0500445 -1
v -0.212019 -0.58282 -1
l 635 636
v -0.986282 0.0500445 1
v -1.75136 0.693976 1
l 637 638
v -0.986907 0.0505708 -1
v -0.221824 -0.593361 -1
l 639 640
v -0.986907 0.0505708 1
v -1.74232 0.705818 1
l 641 642
v -0.987514 0.0510976 -1
v -0.2321 -0.604149 -1
l 643 644
v -0.987514 0.0510976 1
v -1.73281 0.717835 1
l 645 646
v -0.988104 0.051625 -1
v -0.242811 -0.615112 -1
l 647 648
v -0.988104 0.051625 1
v -1.72273 0.730096 1
l 649 650
v -0.988675 0.0521529 -1
v -0.254048 -0.626318 -1
l 651 652
v -0.988675 0.0521529 1
v -1.71209 0.742562 1
l 653 654
v -0.989229 0.0526812 -1
v -0.26581 -0.637728 -1
l 655 656
v -0.989229 0.0526812 1
v -1.70083 0.755262 1
l 657 658
v -0.989765 0.05321 -1
v -0.278161 -0.649371 -1
l 659 660
v -0.989765 0.05321 1
v -1.68891 0.768186 1
l 661 662
v -0.990282 0.0537393 -1
v -0.291133 -0.661237 -1
l 663 664
v -0.990282 0.0537393 1
v -1.67642 0.781211 1
l 665 666
v -0.990782 0.054269 -1
v -0.304644 -0.673202 -1
l 667 668
v -0.990782 0.054269 1
v -1.66316 0.794474 1
l 669 670
v -0.991263 0.0547991 -1
v -0.318882 -0.685406 -1
l 671 672
v -0.991263 0.0547991 1
v -1.64919 0.807885 1
l 673 674
v -0.991727 0.0553296 -1
v -0.333805 -0.697757 -1
l 675 676
v -0.991727 0.0553296 1
v -1.63446 0.821417 1
l 677 678
v -0.992172 0.0558605 -1
v -0.349436 -0.710227 -1
l 679 680
v -0.992172 0.0558605 1
v -1.61895 0.835055 1
l 681 682
v -0.9926 0.0563918 -1
v -0.365817 -0.722803 -1
l 683 684
v -0.9926 0.0563918 1
v -1.60252 0.848851 1
l 685 686
v -0.993009 0.0569235 -1
v -0.383083 -0.735535 -1
l 687 688
v -0.993009 0.0569235 1
v -1.58509 0.862802 1
l 689 690
v -0.9934 0.0574562 -1
v -0.401319 -0.748422 -1
l 691 692
v -0.9934 0.0574562 1
v -1.56541 0.877704 1
l 693 694
v -0.993775 0.0579933 -1
v -0.421767 -0.762255 -1
l 695 696
v -0.993775 0.0579933 1
v -1.54364 0.893245 1
l 697 698
v -0.994134 0.0585392 -1
v -0.444266 -0.776712 -1
l 699 700
v -0.994134 0.0585392 1
v -1.51998 0.909116 1
l 701 702
v -0.994479 0.0590979 -1
v -0.468629 -0.791479 -1
l 703 704
v -0.994479 0.0590979 1
v -1.49511 0.924758 1
l 705 706
v -0.994812 0.0596736 -1
v -0.49418 -0.805986 -1
l 707 708
v -0.994812 0.0596736 1
v -1.46944 0.93986 1
l 709 710
v -0.995134 0.0602705 -1
v -0.520507 -0.819916 -1
l 711 712
v -0.995134 0.0602705 1
v -1.4436 0.954071 1
l 713 714
v -0.995447 0.0608928 -1
v -0.546981 -0.832907 -1
l 715 716
v -0.995447 0.0608928 1
v -1.41808 0.967196 1
l 717 718
v -0.99575 0.0615445 -1
v -0.573121 -0.844758 -1
l 719 720
v -0.99575 0.0615445 1
v -1.39098 0.980128 1
l 721 722
v -0.996047 0.0622327 -1
v -0.600819 -0.85635 -1
l 723 724
v -0.996047 0.0622327 1
v -1.35413 0.995922 1
l 725 726
v -0.996331 0.0629756 -1
v -0.638248 -0.870714 -1
l 727 728
v -0.996331 0.0629756 1
v -1.30903 1.01283 1
l 729 730
v -0.996601 0.0637942 -1
v -0.683905 -0.886059 -1
l 731 732
v -0.996601 0.0637942 1
v -1.25968 1.02857 1
l 733 734
v -0.99685 0.0647094 -1
v -0.733768 -0.900064 -1
l 735 736
v -0.99685 0.0647094 1
v -1.22277 1.03886 1
l 737 738
v -0.996967 0.0652098 -1
v -0.771049 -0.908937 -1
l 739 740
v -0.996967 0.0652098 1
v -1.19829 1.04473 1
l 741 742
v -0.997076 0.0657422 -1
v -0.795749 -0.913782 -1
l 743 744
v -0.997076 0.0657422 1
v -1.17457 1.04986 1
l 745 746
v -0.997178 0.0663093 -1
v -0.819681 -0.917812 -1
l 747 748
v -0.997178 0.0663093 1
v -1.1519 1.05427 1
l 749 750
v -0.997273 0.0669137 -1
v -0.842548 -0.921044 -1
l 751 752
v -0.997273 0.0669137 1
v -1.13023 1.05804 1
l 753 754
v -0.997359 0.067558 -1
v -0.864406 -0.923564 -1
l 755 756
v -0.997359 0.067558 1
v -1.10981 1.06122 1
l 757 758
v -0.997437 0.0682448 -1
v -0.884986 -0.925413 -1
l 759 760
v -0.997437 0.0682448 1
v -1.08117 1.06473 1
l 761 762
v -0.997564 0.0697565 -1
v -0.913836 -0.926732 -1
l 763 764
