# Wavefront OBJ file written 2026-06-29T17:25:05
o NACA0012_edgeMesh

# points : 380
# lines  : 382

# <points count="380">
v 8.78932e-05 0.00125693 1
v 8.78932e-05 0.00125693 -1
v -8.78932e-05 -0.00125693 1
v -8.78932e-05 -0.00125693 -1
v -0.997564 0.0697565 1
v -0.997398 0.0705205 1
v -0.997398 0.0705205 -1
v -0.997564 0.0697565 -1
v -0.997228 0.0712358 1
v -0.997228 0.0712358 -1
v -0.997055 0.0719051 1
v -0.997055 0.0719051 -1
v -0.99688 0.0725311 1
v -0.99688 0.0725311 -1
v -0.996702 0.0731164 1
v -0.996702 0.0731164 -1
v -0.996522 0.0736637 1
v -0.996522 0.0736637 -1
v -0.99634 0.0741758 1
v -0.99634 0.0741758 -1
v -0.996155 0.0746551 1
v -0.996155 0.0746551 -1
v -0.99578 0.0755267 1
v -0.99578 0.0755267 -1
v -0.9954 0.0762998 1
v -0.9954 0.0762998 -1
v -0.995014 0.0769958 1
v -0.995014 0.0769958 -1
v -0.994625 0.0776361 1
v -0.994625 0.0776361 -1
v -0.994233 0.0782392 1
v -0.994233 0.0782392 -1
v -0.993838 0.078812 1
v -0.993838 0.078812 -1
v -0.993436 0.0793582 1
v -0.993436 0.0793582 -1
v -0.993026 0.079882 1
v -0.993026 0.079882 -1
v -0.992606 0.0803872 1
v -0.992606 0.0803872 -1
v -0.992175 0.0808778 1
v -0.992175 0.0808778 -1
v -0.991729 0.0813576 1
v -0.991729 0.0813576 -1
v -0.991267 0.0818306 1
v -0.991267 0.0818306 -1
v -0.990788 0.0823001 1
v -0.990788 0.0823001 -1
v -0.990291 0.0827668 1
v -0.990291 0.0827668 -1
v -0.989776 0.0832305 1
v -0.989776 0.0832305 -1
v -0.989243 0.0836914 1
v -0.989243 0.0836914 -1
v -0.988692 0.0841493 1
v -0.988692 0.0841493 -1
v -0.988124 0.0846043 1
v -0.988124 0.0846043 -1
v -0.987538 0.0850564 1
v -0.987538 0.0850564 -1
v -0.986934 0.0855055 1
v -0.986934 0.0855055 -1
v -0.986312 0.0859517 1
v -0.986312 0.0859517 -1
v -0.985672 0.0863949 1
v -0.985672 0.0863949 -1
v -0.985015 0.0868351 1
v -0.985015 0.0868351 -1
v -0.98434 0.0872722 1
v -0.98434 0.0872722 -1
v -0.983648 0.0877064 1
v -0.983648 0.0877064 -1
v -0.982938 0.0881375 1
v -0.982938 0.0881375 -1
v -0.98221 0.0885655 1
v -0.98221 0.0885655 -1
v -0.981465 0.0889905 1
v -0.981465 0.0889905 -1
v -0.980702 0.0894124 1
v -0.980702 0.0894124 -1
v -0.979922 0.0898312 1
v -0.979922 0.0898312 -1
v -0.979124 0.0902468 1
v -0.979124 0.0902468 -1
v -0.978309 0.0906594 1
v -0.978309 0.0906594 -1
v -0.977476 0.0910687 1
v -0.977476 0.0910687 -1
v -0.976626 0.0914749 1
v -0.976626 0.0914749 -1
v -0.975759 0.091878 1
v -0.975759 0.091878 -1
v -0.974874 0.0922778 1
v -0.974874 0.0922778 -1
v -0.973972 0.0926743 1
v -0.973972 0.0926743 -1
v -0.973053 0.0930677 1
v -0.973053 0.0930677 -1
v -0.972116 0.0934578 1
v -0.972116 0.0934578 -1
v -0.971163 0.0938446 1
v -0.971163 0.0938446 -1
v -0.970192 0.0942281 1
v -0.970192 0.0942281 -1
v -0.969204 0.0946083 1
v -0.969204 0.0946083 -1
v -0.967176 0.0953587 1
v -0.967176 0.0953587 -1
v -0.965081 0.0960956 1
v -0.965081 0.0960956 -1
v -0.962918 0.0968189 1
v -0.962918 0.0968189 -1
v -0.960687 0.0975284 1
v -0.960687 0.0975284 -1
v -0.95839 0.0982241 1
v -0.95839 0.0982241 -1
v -0.956025 0.0989057 1
v -0.956025 0.0989057 -1
v -0.953595 0.099573 1
v -0.953595 0.099573 -1
v -0.951098 0.100226 1
v -0.951098 0.100226 -1
v -0.948535 0.100865 1
v -0.948535 0.100865 -1
v -0.945907 0.101488 1
v -0.945907 0.101488 -1
v -0.943215 0.102097 1
v -0.943215 0.102097 -1
v -0.940457 0.102691 1
v -0.940457 0.102691 -1
v -0.937636 0.10327 1
v -0.937636 0.10327 -1
v -0.934751 0.103834 1
v -0.934751 0.103834 -1
v -0.931802 0.104382 1
v -0.931802 0.104382 -1
v -0.925717 0.105432 1
v -0.925717 0.105432 -1
v -0.919385 0.106418 1
v -0.919385 0.106418 -1
v -0.912808 0.10734 1
v -0.912808 0.10734 -1
v -0.905991 0.108197 1
v -0.905991 0.108197 -1
v -0.898938 0.108987 1
v -0.898938 0.108987 -1
v -0.891653 0.10971 1
v -0.891653 0.10971 -1
v -0.884141 0.110365 1
v -0.884141 0.110365 -1
v -0.876405 0.11095 1
v -0.876405 0.11095 -1
v -0.86845 0.111466 1
v -0.86845 0.111466 -1
v -0.860281 0.111912 1
v -0.860281 0.111912 -1
v -0.851903 0.112286 1
v -0.851903 0.112286 -1
v -0.84332 0.11259 1
v -0.84332 0.11259 -1
v -0.834538 0.112822 1
v -0.834538 0.112822 -1
v -0.816397 0.113071 1
v -0.816397 0.113071 -1
v -0.797521 0.113032 1
v -0.797521 0.113032 -1
v -0.777955 0.112707 1
v -0.777955 0.112707 -1
v -0.757744 0.112099 1
v -0.757744 0.112099 -1
v -0.736934 0.111214 1
v -0.736934 0.111214 -1
v -0.715576 0.110056 1
v -0.715576 0.110056 -1
v -0.693716 0.108636 1
v -0.693716 0.108636 -1
v -0.671408 0.106963 1
v -0.671408 0.106963 -1
v -0.625648 0.102903 1
v -0.625648 0.102903 -1
v -0.578721 0.0979828 1
v -0.578721 0.0979828 -1
v -0.531057 0.0923219 1
v -0.531057 0.0923219 -1
v -0.459144 0.0827279 1
v -0.459144 0.0827279 -1
v -0.364802 0.0685825 1
v -0.364802 0.0685825 -1
v -0.254221 0.050185 1
v -0.254221 0.050185 -1
v -0.124353 0.0263856 1
v -0.124353 0.0263856 -1
v -0.0144517 0.00432413 1
v -0.0144517 0.00432413 -1
v -0.111144 -0.00801482 1
v -0.111144 -0.00801482 -1
v -0.23781 -0.0135973 1
v -0.23781 -0.0135973 -1
v -0.347564 -0.0167056 1
v -0.347564 -0.0167056 -1
v -0.442084 -0.0179515 1
v -0.442084 -0.0179515 -1
v -0.514573 -0.0178128 1
v -0.514573 -0.0178128 -1
v -0.562807 -0.0170755 1
v -0.562807 -0.0170755 -1
v -0.610435 -0.0157404 1
v -0.610435 -0.0157404 -1
v -0.657008 -0.0137435 1
v -0.657008 -0.0137435 -1
v -0.67976 -0.0124799 1
v -0.67976 -0.0124799 -1
v -0.702084 -0.0110322 1
v -0.702084 -0.0110322 -1
v -0.723928 -0.00939644 1
v -0.723928 -0.00939644 -1
v -0.745241 -0.0075698 1
v -0.745241 -0.0075698 -1
v -0.76597 -0.0055509 1
v -0.76597 -0.0055509 -1
v -0.78607 -0.00333991 1
v -0.78607 -0.00333991 -1
v -0.805491 -0.000938494 1
v -0.805491 -0.000938494 -1
v -0.824188 0.00165016 1
v -0.824188 0.00165016 -1
v -0.842118 0.00442119 1
v -0.842118 0.00442119 -1
v -0.850783 0.00587317 1
v -0.850783 0.00587317 -1
v -0.859239 0.00736825 1
v -0.859239 0.00736825 -1
v -0.867484 0.00890544 1
v -0.867484 0.00890544 -1
v -0.875511 0.0104836 1
v -0.875511 0.0104836 -1
v -0.883317 0.0121016 1
v -0.883317 0.0121016 -1
v -0.890896 0.0137581 1
v -0.890896 0.0137581 -1
v -0.898244 0.0154519 1
v -0.898244 0.0154519 -1
v -0.905358 0.0171815 1
v -0.905358 0.0171815 -1
v -0.912232 0.0189456 1
v -0.912232 0.0189456 -1
v -0.918864 0.0207425 1
v -0.918864 0.0207425 -1
v -0.925248 0.0225708 1
v -0.925248 0.0225708 -1
v -0.931382 0.024429 1
v -0.931382 0.024429 -1
v -0.937261 0.0263154 1
v -0.937261 0.0263154 -1
v -0.940105 0.0272686 1
v -0.940105 0.0272686 -1
v -0.942883 0.0282283 1
v -0.942883 0.0282283 -1
v -0.945597 0.0291943 1
v -0.945597 0.0291943 -1
v -0.948245 0.0301663 1
v -0.948245 0.0301663 -1
v -0.950826 0.0311442 1
v -0.950826 0.0311442 -1
v -0.953342 0.0321277 1
v -0.953342 0.0321277 -1
v -0.955791 0.0331166 1
v -0.955791 0.0331166 -1
v -0.958172 0.0341107 1
v -0.958172 0.0341107 -1
v -0.960487 0.0351099 1
v -0.960487 0.0351099 -1
v -0.962733 0.0361139 1
v -0.962733 0.0361139 -1
v -0.964911 0.0371226 1
v -0.964911 0.0371226 -1
v -0.967022 0.0381356 1
v -0.967022 0.0381356 -1
v -0.969063 0.0391529 1
v -0.969063 0.0391529 -1
v -0.971035 0.0401743 1
v -0.971035 0.0401743 -1
v -0.972938 0.0411995 1
v -0.972938 0.0411995 -1
v -0.973864 0.0417135 1
v -0.973864 0.0417135 -1
v -0.974772 0.0422284 1
v -0.974772 0.0422284 -1
v -0.975663 0.0427442 1
v -0.975663 0.0427442 -1
v -0.976536 0.0432608 1
v -0.976536 0.0432608 -1
v -0.977391 0.0437783 1
v -0.977391 0.0437783 -1
v -0.978229 0.0442966 1
v -0.978229 0.0442966 -1
v -0.97905 0.0448156 1
v -0.97905 0.0448156 -1
v -0.979853 0.0453354 1
v -0.979853 0.0453354 -1
v -0.980638 0.0458559 1
v -0.980638 0.0458559 -1
v -0.981405 0.0463772 1
v -0.981405 0.0463772 -1
v -0.982155 0.0468992 1
v -0.982155 0.0468992 -1
v -0.982888 0.0474218 1
v -0.982888 0.0474218 -1
v -0.983602 0.0479451 1
v -0.983602 0.0479451 -1
v -0.984299 0.0484691 1
v -0.984299 0.0484691 -1
v -0.984977 0.0489936 1
v -0.984977 0.0489936 -1
v -0.985638 0.0495188 1
v -0.985638 0.0495188 -1
v -0.986282 0.0500445 1
v -0.986282 0.0500445 -1
v -0.986907 0.0505708 1
v -0.986907 0.0505708 -1
v -0.987514 0.0510976 1
v -0.987514 0.0510976 -1
v -0.988104 0.051625 1
v -0.988104 0.051625 -1
v -0.988675 0.0521529 1
v -0.988675 0.0521529 -1
v -0.989229 0.0526812 1
v -0.989229 0.0526812 -1
v -0.989765 0.05321 1
v -0.989765 0.05321 -1
v -0.990282 0.0537393 1
v -0.990282 0.0537393 -1
v -0.990782 0.054269 1
v -0.990782 0.054269 -1
v -0.991263 0.0547991 1
v -0.991263 0.0547991 -1
v -0.991727 0.0553296 1
v -0.991727 0.0553296 -1
v -0.992172 0.0558605 1
v -0.992172 0.0558605 -1
v -0.9926 0.0563918 1
v -0.9926 0.0563918 -1
v -0.993009 0.0569235 1
v -0.993009 0.0569235 -1
v -0.9934 0.0574562 1
v -0.9934 0.0574562 -1
v -0.993775 0.0579933 1
v -0.993775 0.0579933 -1
v -0.994134 0.0585392 1
v -0.994134 0.0585392 -1
v -0.994479 0.0590979 1
v -0.994479 0.0590979 -1
v -0.994812 0.0596736 1
v -0.994812 0.0596736 -1
v -0.995134 0.0602705 1
v -0.995134 0.0602705 -1
v -0.995447 0.0608928 1
v -0.995447 0.0608928 -1
v -0.99575 0.0615445 1
v -0.99575 0.0615445 -1
v -0.996047 0.0622327 1
v -0.996047 0.0622327 -1
v -0.996331 0.0629756 1
v -0.996331 0.0629756 -1
v -0.996601 0.0637942 1
v -0.996601 0.0637942 -1
v -0.99685 0.0647094 1
v -0.99685 0.0647094 -1
v -0.996967 0.0652098 1
v -0.996967 0.0652098 -1
v -0.997076 0.0657422 1
v -0.997076 0.0657422 -1
v -0.997178 0.0663093 1
v -0.997178 0.0663093 -1
v -0.997273 0.0669137 1
v -0.997273 0.0669137 -1
v -0.997359 0.067558 1
v -0.997359 0.067558 -1
v -0.997437 0.0682448 1
v -0.997437 0.0682448 -1
# </points>

# <edges count="382">
l 5 6
l 7 8
l 6 9
l 10 7
l 9 11
l 12 10
l 11 13
l 14 12
l 13 15
l 16 14
l 15 17
l 18 16
l 17 19
l 20 18
l 19 21
l 22 20
l 21 23
l 24 22
l 23 25
l 26 24
l 25 27
l 28 26
l 27 29
l 30 28
l 29 31
l 32 30
l 31 33
l 34 32
l 33 35
l 36 34
l 35 37
l 38 36
l 37 39
l 40 38
l 39 41
l 42 40
l 41 43
l 44 42
l 43 45
l 46 44
l 45 47
l 48 46
l 47 49
l 50 48
l 49 51
l 52 50
l 51 53
l 54 52
l 53 55
l 56 54
l 55 57
l 58 56
l 57 59
l 60 58
l 59 61
l 62 60
l 61 63
l 64 62
l 63 65
l 66 64
l 65 67
l 68 66
l 67 69
l 70 68
l 69 71
l 72 70
l 71 73
l 74 72
l 73 75
l 76 74
l 75 77
l 78 76
l 77 79
l 80 78
l 79 81
l 82 80
l 81 83
l 84 82
l 83 85
l 86 84
l 85 87
l 88 86
l 87 89
l 90 88
l 89 91
l 92 90
l 91 93
l 94 92
l 93 95
l 96 94
l 95 97
l 98 96
l 97 99
l 100 98
l 99 101
l 102 100
l 101 103
l 104 102
l 103 105
l 106 104
l 105 107
l 108 106
l 107 109
l 110 108
l 109 111
l 112 110
l 111 113
l 114 112
l 113 115
l 116 114
l 115 117
l 118 116
l 117 119
l 120 118
l 119 121
l 122 120
l 121 123
l 124 122
l 123 125
l 126 124
l 125 127
l 128 126
l 127 129
l 130 128
l 129 131
l 132 130
l 131 133
l 134 132
l 133 135
l 136 134
l 135 137
l 138 136
l 137 139
l 140 138
l 139 141
l 142 140
l 141 143
l 144 142
l 143 145
l 146 144
l 145 147
l 148 146
l 147 149
l 150 148
l 149 151
l 152 150
l 151 153
l 154 152
l 153 155
l 156 154
l 155 157
l 158 156
l 157 159
l 160 158
l 159 161
l 162 160
l 161 163
l 164 162
l 163 165
l 166 164
l 165 167
l 168 166
l 167 169
l 170 168
l 169 171
l 172 170
l 171 173
l 174 172
l 173 175
l 176 174
l 175 177
l 178 176
l 177 179
l 180 178
l 179 181
l 182 180
l 181 183
l 184 182
l 183 185
l 186 184
l 185 187
l 188 186
l 187 189
l 190 188
l 189 191
l 192 190
l 191 193
l 194 192
l 1 2
l 193 1
l 2 194
l 3 4
l 1 3
l 4 2
l 3 195
l 196 4
l 195 197
l 198 196
l 197 199
l 200 198
l 199 201
l 202 200
l 201 203
l 204 202
l 203 205
l 206 204
l 205 207
l 208 206
l 207 209
l 210 208
l 209 211
l 212 210
l 211 213
l 214 212
l 213 215
l 216 214
l 215 217
l 218 216
l 217 219
l 220 218
l 219 221
l 222 220
l 221 223
l 224 222
l 223 225
l 226 224
l 225 227
l 228 226
l 227 229
l 230 228
l 229 231
l 232 230
l 231 233
l 234 232
l 233 235
l 236 234
l 235 237
l 238 236
l 237 239
l 240 238
l 239 241
l 242 240
l 241 243
l 244 242
l 243 245
l 246 244
l 245 247
l 248 246
l 247 249
l 250 248
l 249 251
l 252 250
l 251 253
l 254 252
l 253 255
l 256 254
l 255 257
l 258 256
l 257 259
l 260 258
l 259 261
l 262 260
l 261 263
l 264 262
l 263 265
l 266 264
l 265 267
l 268 266
l 267 269
l 270 268
l 269 271
l 272 270
l 271 273
l 274 272
l 273 275
l 276 274
l 275 277
l 278 276
l 277 279
l 280 278
l 279 281
l 282 280
l 281 283
l 284 282
l 283 285
l 286 284
l 285 287
l 288 286
l 287 289
l 290 288
l 289 291
l 292 290
l 291 293
l 294 292
l 293 295
l 296 294
l 295 297
l 298 296
l 297 299
l 300 298
l 299 301
l 302 300
l 301 303
l 304 302
l 303 305
l 306 304
l 305 307
l 308 306
l 307 309
l 310 308
l 309 311
l 312 310
l 311 313
l 314 312
l 313 315
l 316 314
l 315 317
l 318 316
l 317 319
l 320 318
l 319 321
l 322 320
l 321 323
l 324 322
l 323 325
l 326 324
l 325 327
l 328 326
l 327 329
l 330 328
l 329 331
l 332 330
l 331 333
l 334 332
l 333 335
l 336 334
l 335 337
l 338 336
l 337 339
l 340 338
l 339 341
l 342 340
l 341 343
l 344 342
l 343 345
l 346 344
l 345 347
l 348 346
l 347 349
l 350 348
l 349 351
l 352 350
l 351 353
l 354 352
l 353 355
l 356 354
l 355 357
l 358 356
l 357 359
l 360 358
l 359 361
l 362 360
l 361 363
l 364 362
l 363 365
l 366 364
l 365 367
l 368 366
l 367 369
l 370 368
l 369 371
l 372 370
l 371 373
l 374 372
l 373 375
l 376 374
l 375 377
l 378 376
l 377 379
l 380 378
l 379 5
l 8 380
# </edges>
