v -1.7976422 -0.54989898 0.11763772
v -1.80234 -1.1029075e-24 0.1006
l 1 2
v -1.7811322 -0.94881588 0.17751987
v -1.7976422 -0.54989898 0.11763772
l 3 4
v -1.7660403 -1.1317837 0.24175189
v -1.7811322 -0.94881588 0.17751987
l 5 6
v -1.7465262 -1.320816 0.34190208
v -1.7660403 -1.1317837 0.24175189
l 7 8
v -1.7249703 -1.4903326 0.46666688
v -1.7465262 -1.320816 0.34190208
l 9 10
v -1.7042775 -1.6197757 0.59840786
v -1.7249703 -1.4903326 0.46666688
l 11 12
v -1.660315 -1.7600807 0.9317832
v -1.6837106 -1.7057021 0.74603456
l 13 14
v -1.6837106 -1.7057021 0.74603456
v -1.7042775 -1.6197757 0.59840786
l 15 16
v -1.6331859 -1.7902967 1.1606666
v -1.660315 -1.7600807 0.9317832
l 17 18
v -1.6011405 -1.8 1.4417012
v -1.6331859 -1.7902967 1.1606666
l 19 20
v -1.099596 -1.8818243 1.5178909
v -1.6011405 -1.8 1.4417012
l 21 22
v -0.623312 -1.9562469 1.5844605
v -1.099596 -1.8818243 1.5178909
l 23 24
v 0.25347233 -2.0828876 1.6887385
v -0.17228937 -2.023268 1.6414096
l 25 26
v -0.17228937 -2.023268 1.6414096
v -0.623312 -1.9562469 1.5844605
l 27 28
v 1.029213 -2.1799219 1.7545353
v 0.6539731 -2.1351056 1.7264471
l 29 30
v 1.7039099 -2.24735 1.7818509
v 1.029213 -2.1799219 1.7545353
l 31 32
v 2.3578568 -2.2955031 1.7902915
v 1.7039099 -2.24735 1.7818509
l 33 34
v 0.6539731 -2.1351056 1.7264471
v 0.25347233 -2.0828876 1.6887385
l 35 36
v 3.0713475 -2.3347125 1.7994633
v 2.3578568 -2.2955031 1.7902915
l 37 38
v 4.2532282 -2.3767571 1.8145921
v 3.8443818 -2.3649783 1.8093665
l 39 40
v 5.1110287 -2.3898509 1.8255398
v 4.67696 -2.3863001 1.8200008
l 41 42
v 3.8443818 -2.3649783 1.8093665
v 3.4504216 -2.3509634 1.8043234
l 43 44
v 5.5508847 -2.3836532 1.831157
v 5.1110287 -2.3898509 1.8255398
l 45 46
v 3.4504216 -2.3509634 1.8043234
v 3.0713475 -2.3347125 1.7994633
l 47 48
v 4.67696 -2.3863001 1.8200008
v 4.2532282 -2.3767571 1.8145921
l 49 50
v 5.9965286 -2.367707 1.8368522
v 5.5508847 -2.3836532 1.831157
l 51 52
v 6.4479599 -2.3420126 1.8426256
v 5.9965286 -2.367707 1.8368522
l 53 54
v 14.450735 3.7007435e-17 0.040260941
v 14.616089 3.7007435e-17 0.22098829
l 55 56
v 14.348523 3.7007435e-17 -0.033134203
v 14.450735 3.7007435e-17 0.040260941
l 57 58
v 14.616089 3.7007435e-17 0.22098829
v 14.79245 3.7007435e-17 0.45070323
l 59 60
v 14.197668 3.7007435e-17 -0.1037337
v 14.348523 3.7007435e-17 -0.033134203
l 61 62
v 13.758069 3.7007435e-17 -0.24152648
v 14.197668 3.7007435e-17 -0.1037337
l 63 64
v 6.9051785 -2.3065696 1.8484771
v 6.4479599 -2.3420126 1.8426256
l 65 66
v 7.8369789 -2.2064383 1.8604145
v 7.368185 -2.2613783 1.8544068
l 67 68
v 7.368185 -2.2613783 1.8544068
v 6.9051785 -2.3065696 1.8484771
l 69 70
v 8.3115597 -2.1417501 1.8665005
v 7.8369789 -2.2064383 1.8604145
l 71 72
v 9.6425667 -1.9197242 1.8835394
v 9.2214346 -1.9966969 1.8781567
l 73 74
v 10.770735 -1.6710219 1.8979065
v 10.04116 -1.8397875 1.8886253
l 75 76
v 9.2214346 -1.9966969 1.8781567
v 8.7777662 -2.0707054 1.8724769
l 77 78
v 11.41016 -1.4904 1.9060003
v 10.770735 -1.6710219 1.8979065
l 79 80
v 8.7777662 -2.0707054 1.8724769
v 8.3115597 -2.1417501 1.8665005
l 81 82
v 10.04116 -1.8397875 1.8886253
v 9.6425667 -1.9197242 1.8835394
l 83 84
v 12.107073 -1.2573376 1.9148002
v 11.41016 -1.4904 1.9060003
l 85 86
v 13.009109 -0.93125004 1.9262002
v 12.532451 -1.1059219 1.9201752
l 87 88
v 13.53705 -0.73332191 1.9328752
v 13.009109 -0.93125004 1.9262002
l 89 90
v 15.087427 3.7007435e-17 0.93885738
v 15.273851 3.7007435e-17 1.3993746
l 91 92
v 14.79245 3.7007435e-17 0.45070323
v 15.087427 3.7007435e-17 0.93885738
l 93 94
v 12.532451 -1.1059219 1.9201752
v 12.107073 -1.2573376 1.9148002
l 95 96
v 14.116272 -0.51213753 1.9402001
v 13.53705 -0.73332191 1.9328752
l 97 98
v 14.746775 -0.26769689 1.9481751
v 14.116272 -0.51213753 1.9402001
l 99 100
v 15.42856 3.7007435e-17 1.9568
v 14.746775 -0.26769689 1.9481751
l 101 102
v 15.273851 3.7007435e-17 1.3993746
v 15.42856 3.7007435e-17 1.9568
l 103 104
v -1.80234 -1.1029075e-24 0.1006
v -1.7976422 0.54989898 0.11763772
l 105 106
v -1.7976422 0.54989898 0.11763772
v -1.7811322 0.94881588 0.17751987
l 107 108
v -1.7811322 0.94881588 0.17751987
v -1.7660403 1.1317837 0.24175189
l 109 110
v -1.7660403 1.1317837 0.24175189
v -1.7465262 1.320816 0.34190208
l 111 112
v -1.7465262 1.320816 0.34190208
v -1.7249703 1.4903326 0.46666688
l 113 114
v -1.7249703 1.4903326 0.46666688
v -1.7042775 1.6197757 0.59840786
l 115 116
v -1.6837106 1.7057021 0.74603456
v -1.660315 1.7600807 0.9317832
l 117 118
v -1.7042775 1.6197757 0.59840786
v -1.6837106 1.7057021 0.74603456
l 119 120
v -1.660315 1.7600807 0.9317832
v -1.6331859 1.7902967 1.1606666
l 121 122
v -1.6331859 1.7902967 1.1606666
v -1.6011405 1.8 1.4417012
l 123 124
v -1.6011405 1.8 1.4417012
v -1.099596 1.8818243 1.5178909
l 125 126
v -1.099596 1.8818243 1.5178909
v -0.623312 1.9562469 1.5844605
l 127 128
v -0.17228937 2.023268 1.6414096
v 0.25347233 2.0828876 1.6887385
l 129 130
v -0.623312 1.9562469 1.5844605
v -0.17228937 2.023268 1.6414096
l 131 132
v 0.6539731 2.1351056 1.7264471
v 1.029213 2.1799219 1.7545353
l 133 134
v 1.029213 2.1799219 1.7545353
v 1.7039099 2.24735 1.7818509
l 135 136
v 1.7039099 2.24735 1.7818509
v 2.3578568 2.2955031 1.7902915
l 137 138
v 0.25347233 2.0828876 1.6887385
v 0.6539731 2.1351056 1.7264471
l 139 140
v 2.3578568 2.2955031 1.7902915
v 3.0713475 2.3347125 1.7994633
l 141 142
v 3.8443818 2.3649783 1.8093665
v 4.2532282 2.3767571 1.8145921
l 143 144
v 4.67696 2.3863001 1.8200008
v 5.1110287 2.3898509 1.8255398
l 145 146
v 3.4504216 2.3509634 1.8043234
v 3.8443818 2.3649783 1.8093665
l 147 148
v 5.1110287 2.3898509 1.8255398
v 5.5508847 2.3836532 1.831157
l 149 150
v 3.0713475 2.3347125 1.7994633
v 3.4504216 2.3509634 1.8043234
l 151 152
v 4.2532282 2.3767571 1.8145921
v 4.67696 2.3863001 1.8200008
l 153 154
v 5.5508847 2.3836532 1.831157
v 5.9965286 2.367707 1.8368522
l 155 156
v 5.9965286 2.367707 1.8368522
v 6.4479599 2.3420126 1.8426256
l 157 158
v 6.4479599 2.3420126 1.8426256
v 6.9051785 2.3065696 1.8484771
l 159 160
v 7.368185 2.2613783 1.8544068
v 7.8369789 2.2064383 1.8604145
l 161 162
v 6.9051785 2.3065696 1.8484771
v 7.368185 2.2613783 1.8544068
l 163 164
v 7.8369789 2.2064383 1.8604145
v 8.3115597 2.1417501 1.8665005
l 165 166
v 9.2214346 1.9966969 1.8781567
v 9.6425667 1.9197242 1.8835394
l 167 168
v 10.04116 1.8397875 1.8886253
v 10.770735 1.6710219 1.8979065
l 169 170
v 8.7777662 2.0707054 1.8724769
v 9.2214346 1.9966969 1.8781567
l 171 172
v 10.770735 1.6710219 1.8979065
v 11.41016 1.4904 1.9060003
l 173 174
v 8.3115597 2.1417501 1.8665005
v 8.7777662 2.0707054 1.8724769
l 175 176
v 9.6425667 1.9197242 1.8835394
v 10.04116 1.8397875 1.8886253
l 177 178
v 11.41016 1.4904 1.9060003
v 12.107073 1.2573376 1.9148002
l 179 180
v 12.532451 1.1059219 1.9201752
v 13.009109 0.93125004 1.9262002
l 181 182
v 13.009109 0.93125004 1.9262002
v 13.53705 0.73332191 1.9328752
l 183 184
v 12.107073 1.2573376 1.9148002
v 12.532451 1.1059219 1.9201752
l 185 186
v 13.53705 0.73332191 1.9328752
v 14.116272 0.51213753 1.9402001
l 187 188
v 14.116272 0.51213753 1.9402001
v 14.746775 0.26769689 1.9481751
l 189 190
v 14.746775 0.26769689 1.9481751
v 15.42856 3.7007435e-17 1.9568
l 191 192
v -1.6011405 -1.8 1.4417012
v -1.6011405 -1.3499999 1.4417012
l 193 194
v -1.6011405 -1.3499999 1.4417012
v -1.6011405 -0.89999998 1.4417012
l 195 196
v -1.6011405 -0.89999998 1.4417012
v -1.6011405 -0.44999999 1.4417012
l 197 198
v -1.7979827 -0.1777804 0.1164031
v -1.80234 -1.1029075e-24 0.1006
l 199 200
v -1.6011405 -0.44999999 1.4417012
v -1.6011405 -4.6259291e-16 1.4417012
l 201 202
v -1.6011405 -4.6259291e-16 1.4417012
v -1.6011405 0.44999999 1.4417012
l 203 204
v -1.6011405 0.89999998 1.4417012
v -1.6011405 1.3499999 1.4417012
l 205 206
v -1.6011405 0.44999999 1.4417012
v -1.6011405 0.89999998 1.4417012
l 207 208
v -1.6011405 1.3499999 1.4417012
v -1.6011405 1.8 1.4417012
l 209 210
