# Wavefront OBJ file written 2026-05-25T21:24:50
o Carena_edgeMesh

# points : 105
# lines  : 107

# <points count="105">
v -1.6011405 -1.8 1.4417012
v 15.42856 3.7007435e-17 1.9568
v -1.6011405 1.8 1.4417012
v -1.80234 -1.1029075e-24 0.1006
v -1.7976422 -0.54989898 0.11763772
v -1.7811322 -0.94881588 0.17751987
v -1.7660403 -1.1317837 0.24175189
v -1.7465262 -1.320816 0.34190208
v -1.7249703 -1.4903326 0.46666688
v -1.7042775 -1.6197757 0.59840786
v -1.660315 -1.7600807 0.9317832
v -1.6837106 -1.7057021 0.74603456
v -1.6331859 -1.7902967 1.1606666
v -1.099596 -1.8818243 1.5178909
v -0.623312 -1.9562469 1.5844605
v 0.25347233 -2.0828876 1.6887385
v -0.17228937 -2.023268 1.6414096
v 1.029213 -2.1799219 1.7545353
v 0.6539731 -2.1351056 1.7264471
v 1.7039099 -2.24735 1.7818509
v 2.3578568 -2.2955031 1.7902915
v 3.0713475 -2.3347125 1.7994633
v 4.2532282 -2.3767571 1.8145921
v 3.8443818 -2.3649783 1.8093665
v 5.1110287 -2.3898509 1.8255398
v 4.67696 -2.3863001 1.8200008
v 3.4504216 -2.3509634 1.8043234
v 5.5508847 -2.3836532 1.831157
v 5.9965286 -2.367707 1.8368522
v 6.4479599 -2.3420126 1.8426256
v 14.450735 3.7007435e-17 0.040260941
v 14.616089 3.7007435e-17 0.22098829
v 14.348523 3.7007435e-17 -0.033134203
v 14.79245 3.7007435e-17 0.45070323
v 14.197668 3.7007435e-17 -0.1037337
v 13.758069 3.7007435e-17 -0.24152648
v 6.9051785 -2.3065696 1.8484771
v 7.8369789 -2.2064383 1.8604145
v 7.368185 -2.2613783 1.8544068
v 8.3115597 -2.1417501 1.8665005
v 9.6425667 -1.9197242 1.8835394
v 9.2214346 -1.9966969 1.8781567
v 10.770735 -1.6710219 1.8979065
v 10.04116 -1.8397875 1.8886253
v 8.7777662 -2.0707054 1.8724769
v 11.41016 -1.4904 1.9060003
v 12.107073 -1.2573376 1.9148002
v 13.009109 -0.93125004 1.9262002
v 12.532451 -1.1059219 1.9201752
v 13.53705 -0.73332191 1.9328752
v 15.087427 3.7007435e-17 0.93885738
v 15.273851 3.7007435e-17 1.3993746
v 14.116272 -0.51213753 1.9402001
v 14.746775 -0.26769689 1.9481751
v -1.7976422 0.54989898 0.11763772
v -1.7811322 0.94881588 0.17751987
v -1.7660403 1.1317837 0.24175189
v -1.7465262 1.320816 0.34190208
v -1.7249703 1.4903326 0.46666688
v -1.7042775 1.6197757 0.59840786
v -1.6837106 1.7057021 0.74603456
v -1.660315 1.7600807 0.9317832
v -1.6331859 1.7902967 1.1606666
v -1.099596 1.8818243 1.5178909
v -0.623312 1.9562469 1.5844605
v -0.17228937 2.023268 1.6414096
v 0.25347233 2.0828876 1.6887385
v 0.6539731 2.1351056 1.7264471
v 1.029213 2.1799219 1.7545353
v 1.7039099 2.24735 1.7818509
v 2.3578568 2.2955031 1.7902915
v 3.0713475 2.3347125 1.7994633
v 3.8443818 2.3649783 1.8093665
v 4.2532282 2.3767571 1.8145921
v 4.67696 2.3863001 1.8200008
v 5.1110287 2.3898509 1.8255398
v 3.4504216 2.3509634 1.8043234
v 5.5508847 2.3836532 1.831157
v 5.9965286 2.367707 1.8368522
v 6.4479599 2.3420126 1.8426256
v 6.9051785 2.3065696 1.8484771
v 7.368185 2.2613783 1.8544068
v 7.8369789 2.2064383 1.8604145
v 8.3115597 2.1417501 1.8665005
v 9.2214346 1.9966969 1.8781567
v 9.6425667 1.9197242 1.8835394
v 10.04116 1.8397875 1.8886253
v 10.770735 1.6710219 1.8979065
v 8.7777662 2.0707054 1.8724769
v 11.41016 1.4904 1.9060003
v 12.107073 1.2573376 1.9148002
v 12.532451 1.1059219 1.9201752
v 13.009109 0.93125004 1.9262002
v 13.53705 0.73332191 1.9328752
v 14.116272 0.51213753 1.9402001
v 14.746775 0.26769689 1.9481751
v -1.6011405 -1.3499999 1.4417012
v -1.6011405 -0.89999998 1.4417012
v -1.6011405 -0.44999999 1.4417012
v -1.7979827 -0.1777804 0.1164031
v -1.6011405 -4.6259291e-16 1.4417012
v -1.6011405 0.44999999 1.4417012
v -1.6011405 0.89999998 1.4417012
v -1.6011405 1.3499999 1.4417012
v -1.8014235 -0.090125829 0.10392369
# </points>

# <edges count="107">
l 5 4
l 6 5
l 7 6
l 8 7
l 9 8
l 10 9
l 11 12
l 12 10
l 13 11
l 1 13
l 14 1
l 15 14
l 16 17
l 17 15
l 18 19
l 20 18
l 21 20
l 19 16
l 22 21
l 23 24
l 25 26
l 24 27
l 28 25
l 27 22
l 26 23
l 29 28
l 30 29
l 31 32
l 33 31
l 32 34
l 35 33
l 36 35
l 37 30
l 38 39
l 39 37
l 40 38
l 41 42
l 43 44
l 42 45
l 46 43
l 45 40
l 44 41
l 47 46
l 48 49
l 50 48
l 51 52
l 34 51
l 49 47
l 53 50
l 54 53
l 2 54
l 52 2
l 4 55
l 55 56
l 56 57
l 57 58
l 58 59
l 59 60
l 61 62
l 60 61
l 62 63
l 63 3
l 3 64
l 64 65
l 66 67
l 65 66
l 68 69
l 69 70
l 70 71
l 67 68
l 71 72
l 73 74
l 75 76
l 77 73
l 76 78
l 72 77
l 74 75
l 78 79
l 79 80
l 80 81
l 82 83
l 81 82
l 83 84
l 85 86
l 87 88
l 89 85
l 88 90
l 84 89
l 86 87
l 90 91
l 92 93
l 93 94
l 91 92
l 94 95
l 95 96
l 96 2
l 1 97
l 97 98
l 98 99
l 100 4
l 99 101
l 101 102
l 103 104
l 102 103
l 104 3
l 105 100
l 4 105
# </edges>
