v -1.7976422 -0.54989898 0.11763772
v -1.8061808 0.44958494 0.086670351
l 1 2
v -1.7811322 -0.94881588 0.17751987
v -1.8220265 0.039276987 0.029195436
l 3 4
v -1.7660403 -1.1317837 0.24175189
v -1.8436331 -0.19108123 -0.088487684
l 5 6
v -1.7465262 -1.320816 0.34190208
v -1.837369 -0.44082534 -0.12432101
l 7 8
v -1.7249703 -1.4903326 0.46666688
v -1.8268502 -0.689145 -0.12301008
l 9 10
v -1.7042775 -1.6197757 0.59840786
v -1.8156204 -0.92327514 -0.11045728
l 11 12
v -1.660315 -1.7600807 0.9317832
v -1.7803207 -1.4811497 -0.02100017
l 13 14
v -1.6837106 -1.7057021 0.74603456
v -1.8032535 -1.2062648 -0.11202834
l 15 16
v -1.6331859 -1.7902967 1.1606666
v -1.7498917 -1.6603118 0.17604295
l 17 18
v -1.6011405 -1.8 1.4417012
v -1.7143662 -1.7657154 0.44872357
l 19 20
v -1.099596 -1.8818243 1.5178909
v -2.0756388 -1.7225881 1.36962
l 21 22
v -0.623312 -1.9562469 1.5844605
v -1.6020351 -1.8033148 1.4476657
l 23 24
v 0.25347233 -2.0828876 1.6887385
v -0.73091806 -1.9450429 1.5793109
l 25 26
v -0.17228937 -2.023268 1.6414096
v -1.1538026 -1.8774169 1.5174772
l 27 28
v 1.029213 -2.1799219 1.7545353
v 0.039001099 -2.0616573 1.680414
l 29 30
v 1.7039099 -2.24735 1.7818509
v 0.70967305 -2.1479876 1.7415985
l 31 32
v 2.3578568 -2.2955031 1.7902915
v 1.3606394 -2.2220734 1.7774203
l 33 34
v 0.6539731 -2.1351056 1.7264471
v -0.33334032 -2.006378 1.6334879
l 35 36
v 3.0713475 -2.3347125 1.7994633
v 2.0729363 -2.2798455 1.786629
l 37 38
v 4.2532282 -2.3767571 1.8145921
v 3.2537245 -2.3479615 1.801817
l 39 40
v 5.1110287 -2.3898509 1.8255398
v 4.1111435 -2.3816716 1.8127805
l 41 42
v 3.8443818 -2.3649783 1.8093665
v 2.8450957 -2.3294292 1.7965747
l 43 44
v 5.5508847 -2.3836532 1.831157
v 4.5510655 -2.3977409 1.8183889
l 45 46
v 3.4504216 -2.3509634 1.8043234
v 2.4514212 -2.3081364 1.7915151
l 47 48
v 4.67696 -2.3863001 1.8200008
v 3.6772949 -2.3637864 1.8072407
l 49 50
v 5.9965286 -2.367707 1.8368522
v 4.9972497 -2.4034635 1.8240816
l 51 52
v 6.4479599 -2.3420126 1.8426256
v 5.4496572 -2.3988336 1.8298582
l 53 54
v 14.450735 3.7007435e-17 0.040260941
v 15.125765 3.7007435e-17 0.77805115
l 55 56
v 14.348523 3.7007435e-17 -0.033134203
v 15.160801 3.7007435e-17 0.55013658
l 57 58
v 14.616089 3.7007435e-17 0.22098829
v 15.225056 3.7007435e-17 1.0141838
l 59 60
v 14.197668 3.7007435e-17 -0.1037337
v 15.103389 3.7007435e-17 0.32013987
l 61 62
v 13.758069 3.7007435e-17 -0.24152648
v 14.71229 3.7007435e-17 0.057575172
l 63 64
v 6.9051785 -2.3065696 1.8484771
v 5.9082508 -2.3838503 1.8357184
l 65 66
v 7.8369789 -2.2064383 1.8604145
v 6.8438567 -2.3228266 1.8476875
l 67 68
v 7.368185 -2.2613783 1.8544068
v 6.3729954 -2.3585128 1.8416615
l 69 70
v 8.3115597 -2.1417501 1.8665005
v 7.3208018 -2.2767963 1.8537951
l 71 72
v 9.6425667 -1.9197242 1.8835394
v 8.6589407 -2.0995072 1.870967
l 73 74
v 10.770735 -1.6710219 1.8979065
v 9.7965362 -1.8963739 1.8855133
l 75 76
v 9.2214346 -1.9966969 1.8781567
v 8.2351423 -2.1612207 1.8655304
l 77 78
v 11.41016 -1.4904 1.9060003
v 10.447889 -1.7622181 1.89382
l 79 80
v 8.7777662 -2.0707054 1.8724769
v 7.7892584 -2.221343 1.859805
l 81 82
v 10.04116 -1.8397875 1.8886253
v 9.060759 -2.0364042 1.8761159
l 83 84
v 12.107073 -1.2573376 1.9148002
v 11.158767 -1.574471 1.9028259
l 85 86
v 13.009109 -0.93125004 1.9262002
v 12.070234 -1.2753015 1.9143328
l 87 88
v 13.53705 -0.73332191 1.9328752
v 12.600758 -1.0843435 1.9210372
l 89 90
v 15.087427 3.7007435e-17 0.93885738
v 15.462662 3.7007435e-17 1.8657871
l 91 92
v 14.79245 3.7007435e-17 0.45070323
v 15.309631 3.7007435e-17 1.3065794
l 93 94
v 12.532451 -1.1059219 1.9201752
v 11.590422 -1.4412425 1.9082718
l 95 96
v 14.116272 -0.51213753 1.9402001
v 13.182133 -0.86885219 1.9283868
l 97 98
v 14.746775 -0.26769689 1.9481751
v 13.814458 -0.62914819 1.9363826
l 99 100
v 15.42856 3.7007435e-17 1.9568
v 14.497805 -0.36545264 1.9450255
l 101 102
v 15.273851 3.7007435e-17 1.3993746
v 15.541284 3.7007435e-17 2.3629511
l 103 104
v -1.80234 -1.1029075e-24 0.1006
v -1.7938014 0.99948392 0.13156738
l 105 106
v -1.7976422 0.54989898 0.11763772
v -1.7567479 1.5379919 0.26596216
l 107 108
v -1.7811322 0.94881588 0.17751987
v -1.7035394 1.8895184 0.50775945
l 109 110
v -1.7660403 1.1317837 0.24175189
v -1.6751976 2.0117744 0.70797498
l 111 112
v -1.7465262 1.320816 0.34190208
v -1.6446464 2.1220036 0.93157904
l 113 114
v -1.7249703 1.4903326 0.46666688
v -1.6136274 2.1868331 1.175532
l 115 116
v -1.6837106 1.7057021 0.74603456
v -1.563705 1.9846331 1.6988179
l 117 118
v -1.7042775 1.6197757 0.59840786
v -1.5847346 2.1192129 1.4564708
l 119 120
v -1.660315 1.7600807 0.9317832
v -1.5436092 1.8900655 1.9164068
l 121 122
v -1.6331859 1.7902967 1.1606666
v -1.5199602 1.8245812 2.1536442
l 123 124
v -1.6011405 1.8 1.4417012
v -0.62509769 1.9592361 1.5899721
l 125 126
v -1.099596 1.8818243 1.5178909
v -0.1208729 2.0347564 1.6546857
l 127 128
v -0.17228937 2.023268 1.6414096
v 0.81210102 2.1611128 1.7508372
l 129 130
v -0.623312 1.9562469 1.5844605
v 0.35820123 2.1020979 1.7083929
l 131 132
v 0.6539731 2.1351056 1.7264471
v 1.644185 2.2533702 1.8005684
l 133 134
v 1.029213 2.1799219 1.7545353
v 2.0234498 2.2792843 1.7947877
l 135 136
v 1.7039099 2.24735 1.7818509
v 2.7011272 2.3207797 1.7947222
l 137 138
v 0.25347233 2.0828876 1.6887385
v 1.2407857 2.2116152 1.7816977
l 139 140
v 2.3578568 2.2955031 1.7902915
v 3.3562679 2.3503701 1.8031258
l 141 142
v 3.8443818 2.3649783 1.8093665
v 4.8438855 2.3937739 1.8221416
l 143 144
v 4.67696 2.3863001 1.8200008
v 5.6768451 2.3944793 1.8327601
l 145 146
v 3.4504216 2.3509634 1.8043234
v 4.4497076 2.3865125 1.8171152
l 147 148
v 5.1110287 2.3898509 1.8255398
v 6.1108479 2.3757631 1.8383079
l 149 150
v 3.0713475 2.3347125 1.7994633
v 4.0703479 2.3775395 1.8122716
l 151 152
v 4.2532282 2.3767571 1.8145921
v 5.2528933 2.3992708 1.8273522
l 153 154
v 5.5508847 2.3836532 1.831157
v 6.5501637 2.3478967 1.8439275
l 155 156
v 5.9965286 2.367707 1.8368522
v 6.9948314 2.310886 1.8496196
l 157 158
v 6.4479599 2.3420126 1.8426256
v 7.4448876 2.2647319 1.8553843
l 159 160
v 7.368185 2.2613783 1.8544068
v 8.3613073 2.14499 1.8671339
l 161 162
v 6.9051785 2.3065696 1.8484771
v 7.9003682 2.2094351 1.8612225
l 163 164
v 7.8369789 2.2064383 1.8604145
v 8.8277367 2.0713921 1.8731199
l 165 166
v 9.2214346 1.9966969 1.8781567
v 10.205061 1.816914 1.8907291
l 167 168
v 10.04116 1.8397875 1.8886253
v 11.015358 1.6144356 1.9010185
l 169 170
v 8.7777662 2.0707054 1.8724769
v 9.7640585 1.9061817 1.8851032
l 171 172
v 10.770735 1.6710219 1.8979065
v 11.733006 1.3992038 1.9100868
l 173 174
v 8.3115597 2.1417501 1.8665005
v 9.3000675 1.9911125 1.8791725
l 175 176
v 9.6425667 1.9197242 1.8835394
v 10.622967 1.7231075 1.8960488
l 177 178
v 11.41016 1.4904 1.9060003
v 12.358465 1.1732666 1.9179745
l 179 180
v 12.532451 1.1059219 1.9201752
v 13.471326 0.76187043 1.9320426
l 181 182
v 13.009109 0.93125004 1.9262002
v 13.945402 0.5802284 1.9380381
l 183 184
v 12.107073 1.2573376 1.9148002
v 13.049102 0.92201694 1.9267035
l 185 186
v 13.53705 0.73332191 1.9328752
v 14.471189 0.37660724 1.9446884
l 187 188
v 14.116272 0.51213753 1.9402001
v 15.048588 0.15068623 1.9519926
l 189 190
v 14.746775 0.26769689 1.9481751
v 15.67753 -0.097755751 1.9599496
l 191 192
v -1.6011405 -1.8 1.4417012
v -1.6011405 -0.79999995 1.4417012
l 193 194
v -1.6011405 -1.3499999 1.4417012
v -1.6011405 -0.3499999 1.4417012
l 195 196
v -1.6011405 -0.89999998 1.4417012
v -1.6011405 0.10000002 1.4417012
l 197 198
v -1.7979827 -0.1777804 0.1164031
v -1.8223888 0.81799534 0.027887519
l 199 200
v -1.6011405 -0.44999999 1.4417012
v -1.6011405 0.55000001 1.4417012
l 201 202
v -1.6011405 -4.6259291e-16 1.4417012
v -1.6011405 1 1.4417012
l 203 204
v -1.6011405 0.89999998 1.4417012
v -1.6011405 1.9 1.4417012
l 205 206
v -1.6011405 0.44999999 1.4417012
v -1.6011405 1.45 1.4417012
l 207 208
v -1.6011405 1.3499999 1.4417012
v -1.6011405 2.3499999 1.4417012
l 209 210
v -1.8014235 -0.090125829 0.10392369
v -1.76259 -1.0793959 0.24476638
l 211 212
v -1.80234 -1.1029075e-24 0.1006
v -1.7921786 -0.9992691 0.13745129
l 213 214
